<?xml version="1.0" encoding="utf-8" standalone="no"?>
<!DOCTYPE svg PUBLIC "-//W3C//DTD SVG 1.1//EN"
  "http://www.w3.org/Graphics/SVG/1.1/DTD/svg11.dtd">
<!-- Created with matplotlib (http://matplotlib.org/) -->
<svg height="144pt" version="1.1" viewBox="0 0 180 144" width="180pt" xmlns="http://www.w3.org/2000/svg" xmlns:xlink="http://www.w3.org/1999/xlink">
 <defs>
  <style type="text/css">
*{stroke-linecap:butt;stroke-linejoin:round;}
  </style>
 </defs>
 <g id="figure_1">
  <g id="patch_1">
   <path d="
M0 144
L180 144
L180 0
L0 0
z
" style="fill:#ffffff;"/>
  </g>
  <g id="axes_1">
   <g id="patch_2">
    <path d="
M43.2 109.44
L178.2 109.44
L178.2 8.64
L43.2 8.64
z
" style="fill:#ffffff;"/>
   </g>
   <g id="LineCollection_1">
    <defs>
     <path d="
M76.95 -50.8021
L76.95 -50.8376" id="C0_0_8399bf15be"/>
     <path d="
M144.45 -62.8835
L144.45 -62.9489" id="C0_1_faeb11a701"/>
    </defs>
    <g clip-path="url(#pa8676777ac)">
     <use style="fill:none;stroke:#000000;stroke-width:0.8;" x="0.0" xlink:href="#C0_0_8399bf15be" y="144.0"/>
    </g>
    <g clip-path="url(#pa8676777ac)">
     <use style="fill:none;stroke:#000000;stroke-width:0.8;" x="0.0" xlink:href="#C0_1_faeb11a701" y="144.0"/>
    </g>
   </g>
   <g id="LineCollection_2">
    <defs>
     <path d="
M76.95 -56.7423
L76.95 -56.762" id="C1_0_1db12d3069"/>
     <path d="
M144.45 -104.72
L144.45 -104.843" id="C1_1_6072dd71f7"/>
    </defs>
    <g clip-path="url(#pa8676777ac)">
     <use style="fill:none;stroke:#ff0000;stroke-width:0.8;" x="0.0" xlink:href="#C1_0_1db12d3069" y="144.0"/>
    </g>
    <g clip-path="url(#pa8676777ac)">
     <use style="fill:none;stroke:#ff0000;stroke-width:0.8;" x="0.0" xlink:href="#C1_1_6072dd71f7" y="144.0"/>
    </g>
   </g>
   <g id="LineCollection_3">
    <defs>
     <path d="
M76.95 -48.5614
L76.95 -48.5881" id="C2_0_e502b6db9e"/>
     <path d="
M144.45 -56.4089
L144.45 -56.4439" id="C2_1_3f471bb4cc"/>
    </defs>
    <g clip-path="url(#pa8676777ac)">
     <use style="fill:none;stroke:#000000;stroke-width:0.8;" x="0.0" xlink:href="#C2_0_e502b6db9e" y="144.0"/>
    </g>
    <g clip-path="url(#pa8676777ac)">
     <use style="fill:none;stroke:#000000;stroke-width:0.8;" x="0.0" xlink:href="#C2_1_3f471bb4cc" y="144.0"/>
    </g>
   </g>
   <g id="LineCollection_4">
    <defs>
     <path d="
M76.95 -55.0818
L76.95 -55.1065" id="C3_0_caa2cead9d"/>
     <path d="
M144.45 -95.6046
L144.45 -95.6796" id="C3_1_a7cc82a54e"/>
    </defs>
    <g clip-path="url(#pa8676777ac)">
     <use style="fill:none;stroke:#ff0000;stroke-width:0.8;" x="0.0" xlink:href="#C3_0_caa2cead9d" y="144.0"/>
    </g>
    <g clip-path="url(#pa8676777ac)">
     <use style="fill:none;stroke:#ff0000;stroke-width:0.8;" x="0.0" xlink:href="#C3_1_a7cc82a54e" y="144.0"/>
    </g>
   </g>
   <g id="line2d_1">
    <defs>
     <path d="
M3 1.83697e-16
L-3 -1.83697e-16" id="m0f9b2572c5" style="stroke:#000000;stroke-width:0.8;"/>
    </defs>
    <g clip-path="url(#pa8676777ac)">
     <use style="stroke:#000000;stroke-width:0.8;" x="76.95" xlink:href="#m0f9b2572c5" y="93.1979186518"/>
     <use style="stroke:#000000;stroke-width:0.8;" x="144.45" xlink:href="#m0f9b2572c5" y="81.1165063761"/>
    </g>
   </g>
   <g id="line2d_2">
    <g clip-path="url(#pa8676777ac)">
     <use style="stroke:#000000;stroke-width:0.8;" x="76.95" xlink:href="#m0f9b2572c5" y="93.1623815113"/>
     <use style="stroke:#000000;stroke-width:0.8;" x="144.45" xlink:href="#m0f9b2572c5" y="81.0510526755"/>
    </g>
   </g>
   <g id="line2d_3">
    <path clip-path="url(#pa8676777ac)" d="
M76.95 93.1802
L144.45 81.0838" style="fill:none;stroke:#000000;stroke-linecap:square;stroke-width:0.8;"/>
    <defs>
     <path d="
M-2 2
L2 2
L2 -2
L-2 -2
z
" id="m832fb497ba" style="stroke:#000000;stroke-linejoin:miter;stroke-width:0.5;"/>
    </defs>
    <g clip-path="url(#pa8676777ac)">
     <use style="stroke:#000000;stroke-linejoin:miter;stroke-width:0.5;" x="76.95" xlink:href="#m832fb497ba" y="93.1801500816"/>
     <use style="stroke:#000000;stroke-linejoin:miter;stroke-width:0.5;" x="144.45" xlink:href="#m832fb497ba" y="81.0837795258"/>
    </g>
   </g>
   <g id="line2d_4">
    <defs>
     <path d="
M3 1.83697e-16
L-3 -1.83697e-16" id="ma19bf96cc0" style="stroke:#ff0000;stroke-width:0.8;"/>
    </defs>
    <g clip-path="url(#pa8676777ac)">
     <use style="fill:#ff0000;stroke:#ff0000;stroke-width:0.8;" x="76.95" xlink:href="#ma19bf96cc0" y="87.257704121"/>
     <use style="fill:#ff0000;stroke:#ff0000;stroke-width:0.8;" x="144.45" xlink:href="#ma19bf96cc0" y="39.2796651345"/>
    </g>
   </g>
   <g id="line2d_5">
    <g clip-path="url(#pa8676777ac)">
     <use style="fill:#ff0000;stroke:#ff0000;stroke-width:0.8;" x="76.95" xlink:href="#ma19bf96cc0" y="87.2380240766"/>
     <use style="fill:#ff0000;stroke:#ff0000;stroke-width:0.8;" x="144.45" xlink:href="#ma19bf96cc0" y="39.1572678013"/>
    </g>
   </g>
   <g id="line2d_6">
    <path clip-path="url(#pa8676777ac)" d="
M76.95 87.2479
L144.45 39.2185" style="fill:none;stroke:#ff0000;stroke-linecap:square;stroke-width:0.8;"/>
    <defs>
     <path d="
M-2 2
L2 2
L2 -2
L-2 -2
z
" id="m68795ba406" style="stroke:#ff0000;stroke-linejoin:miter;stroke-width:0.5;"/>
    </defs>
    <g clip-path="url(#pa8676777ac)">
     <use style="fill:#ff0000;stroke:#ff0000;stroke-linejoin:miter;stroke-width:0.5;" x="76.95" xlink:href="#m68795ba406" y="87.2478640988"/>
     <use style="fill:#ff0000;stroke:#ff0000;stroke-linejoin:miter;stroke-width:0.5;" x="144.45" xlink:href="#m68795ba406" y="39.2184664679"/>
    </g>
   </g>
   <g id="line2d_7">
    <g clip-path="url(#pa8676777ac)">
     <use style="stroke:#000000;stroke-width:0.8;" x="76.95" xlink:href="#m0f9b2572c5" y="95.4385702788"/>
     <use style="stroke:#000000;stroke-width:0.8;" x="144.45" xlink:href="#m0f9b2572c5" y="87.5911145392"/>
    </g>
   </g>
   <g id="line2d_8">
    <g clip-path="url(#pa8676777ac)">
     <use style="stroke:#000000;stroke-width:0.8;" x="76.95" xlink:href="#m0f9b2572c5" y="95.4118790808"/>
     <use style="stroke:#000000;stroke-width:0.8;" x="144.45" xlink:href="#m0f9b2572c5" y="87.5561320026"/>
    </g>
   </g>
   <g id="line2d_9">
    <path clip-path="url(#pa8676777ac)" d="
M76.95 95.4252
L144.45 87.5736" style="fill:none;stroke:#000000;stroke-linecap:square;stroke-width:0.8;"/>
    <defs>
     <path d="
M0 2
C0.530406 2 1.03916 1.78927 1.41421 1.41421
C1.78927 1.03916 2 0.530406 2 0
C2 -0.530406 1.78927 -1.03916 1.41421 -1.41421
C1.03916 -1.78927 0.530406 -2 0 -2
C-0.530406 -2 -1.03916 -1.78927 -1.41421 -1.41421
C-1.78927 -1.03916 -2 -0.530406 -2 0
C-2 0.530406 -1.78927 1.03916 -1.41421 1.41421
C-1.03916 1.78927 -0.530406 2 0 2
z
" id="m76eb5f4da3" style="stroke:#000000;stroke-width:0.5;"/>
    </defs>
    <g clip-path="url(#pa8676777ac)">
     <use style="stroke:#000000;stroke-width:0.5;" x="76.95" xlink:href="#m76eb5f4da3" y="95.4252246798"/>
     <use style="stroke:#000000;stroke-width:0.5;" x="144.45" xlink:href="#m76eb5f4da3" y="87.5736232709"/>
    </g>
   </g>
   <g id="line2d_10">
    <g clip-path="url(#pa8676777ac)">
     <use style="fill:#ff0000;stroke:#ff0000;stroke-width:0.8;" x="76.95" xlink:href="#ma19bf96cc0" y="88.9181918242"/>
     <use style="fill:#ff0000;stroke:#ff0000;stroke-width:0.8;" x="144.45" xlink:href="#ma19bf96cc0" y="48.3953838705"/>
    </g>
   </g>
   <g id="line2d_11">
    <g clip-path="url(#pa8676777ac)">
     <use style="fill:#ff0000;stroke:#ff0000;stroke-width:0.8;" x="76.95" xlink:href="#ma19bf96cc0" y="88.8934707711"/>
     <use style="fill:#ff0000;stroke:#ff0000;stroke-width:0.8;" x="144.45" xlink:href="#ma19bf96cc0" y="48.3203918495"/>
    </g>
   </g>
   <g id="line2d_12">
    <path clip-path="url(#pa8676777ac)" d="
M76.95 88.9058
L144.45 48.3579" style="fill:none;stroke:#ff0000;stroke-linecap:square;stroke-width:0.8;"/>
    <defs>
     <path d="
M0 2
C0.530406 2 1.03916 1.78927 1.41421 1.41421
C1.78927 1.03916 2 0.530406 2 0
C2 -0.530406 1.78927 -1.03916 1.41421 -1.41421
C1.03916 -1.78927 0.530406 -2 0 -2
C-0.530406 -2 -1.03916 -1.78927 -1.41421 -1.41421
C-1.78927 -1.03916 -2 -0.530406 -2 0
C-2 0.530406 -1.78927 1.03916 -1.41421 1.41421
C-1.03916 1.78927 -0.530406 2 0 2
z
" id="meb91f9ed46" style="stroke:#ff0000;stroke-width:0.5;"/>
    </defs>
    <g clip-path="url(#pa8676777ac)">
     <use style="fill:#ff0000;stroke:#ff0000;stroke-width:0.5;" x="76.95" xlink:href="#meb91f9ed46" y="88.9058312976"/>
     <use style="fill:#ff0000;stroke:#ff0000;stroke-width:0.5;" x="144.45" xlink:href="#meb91f9ed46" y="48.35788786"/>
    </g>
   </g>
   <g id="matplotlib.axis_1">
    <g id="xtick_1">
     <g id="line2d_13">
      <defs>
       <path d="
M0 0
L0 4" id="m741efc42ff" style="stroke:#000000;stroke-width:0.5;"/>
      </defs>
      <g>
       <use style="stroke:#000000;stroke-width:0.5;" x="76.95" xlink:href="#m741efc42ff" y="109.44"/>
      </g>
     </g>
     <g id="text_1">
      <!-- 0 -->
      <defs>
       <path d="
M31.7812 66.4062
Q24.1719 66.4062 20.3281 58.9062
Q16.5 51.4219 16.5 36.375
Q16.5 21.3906 20.3281 13.8906
Q24.1719 6.39062 31.7812 6.39062
Q39.4531 6.39062 43.2812 13.8906
Q47.125 21.3906 47.125 36.375
Q47.125 51.4219 43.2812 58.9062
Q39.4531 66.4062 31.7812 66.4062
M31.7812 74.2188
Q44.0469 74.2188 50.5156 64.5156
Q56.9844 54.8281 56.9844 36.375
Q56.9844 17.9688 50.5156 8.26562
Q44.0469 -1.42188 31.7812 -1.42188
Q19.5312 -1.42188 13.0625 8.26562
Q6.59375 17.9688 6.59375 36.375
Q6.59375 54.8281 13.0625 64.5156
Q19.5312 74.2188 31.7812 74.2188" id="DejaVuSans-30"/>
      </defs>
      <g transform="translate(75.43828125 121.9990625)scale(0.06 -0.06)">
       <use xlink:href="#DejaVuSans-30"/>
      </g>
     </g>
    </g>
    <g id="xtick_2">
     <g id="line2d_14">
      <g>
       <use style="stroke:#000000;stroke-width:0.5;" x="144.45" xlink:href="#m741efc42ff" y="109.44"/>
      </g>
     </g>
     <g id="text_2">
      <!-- 8 -->
      <defs>
       <path d="
M31.7812 34.625
Q24.75 34.625 20.7188 30.8594
Q16.7031 27.0938 16.7031 20.5156
Q16.7031 13.9219 20.7188 10.1562
Q24.75 6.39062 31.7812 6.39062
Q38.8125 6.39062 42.8594 10.1719
Q46.9219 13.9688 46.9219 20.5156
Q46.9219 27.0938 42.8906 30.8594
Q38.875 34.625 31.7812 34.625
M21.9219 38.8125
Q15.5781 40.375 12.0312 44.7188
Q8.5 49.0781 8.5 55.3281
Q8.5 64.0625 14.7188 69.1406
Q20.9531 74.2188 31.7812 74.2188
Q42.6719 74.2188 48.875 69.1406
Q55.0781 64.0625 55.0781 55.3281
Q55.0781 49.0781 51.5312 44.7188
Q48 40.375 41.7031 38.8125
Q48.8281 37.1562 52.7969 32.3125
Q56.7812 27.4844 56.7812 20.5156
Q56.7812 9.90625 50.3125 4.23438
Q43.8438 -1.42188 31.7812 -1.42188
Q19.7344 -1.42188 13.25 4.23438
Q6.78125 9.90625 6.78125 20.5156
Q6.78125 27.4844 10.7812 32.3125
Q14.7969 37.1562 21.9219 38.8125
M18.3125 54.3906
Q18.3125 48.7344 21.8438 45.5625
Q25.3906 42.3906 31.7812 42.3906
Q38.1406 42.3906 41.7188 45.5625
Q45.3125 48.7344 45.3125 54.3906
Q45.3125 60.0625 41.7188 63.2344
Q38.1406 66.4062 31.7812 66.4062
Q25.3906 66.4062 21.8438 63.2344
Q18.3125 60.0625 18.3125 54.3906" id="DejaVuSans-38"/>
      </defs>
      <g transform="translate(142.95 121.9990625)scale(0.06 -0.06)">
       <use xlink:href="#DejaVuSans-38"/>
      </g>
     </g>
    </g>
    <g id="text_3">
     <!-- $\kappa$ -->
     <defs>
      <path d="
M5.32812 1.70312
Q5.32812 2.29688 5.42188 2.59375
L14.9844 41.0156
Q15.375 42.4375 16.5469 43.3125
Q17.7188 44.1875 19.1875 44.1875
Q20.4531 44.1875 21.3281 43.4219
Q22.2188 42.6719 22.2188 41.4062
Q22.2188 41.1094 22.1875 40.9375
Q22.1719 40.7656 22.125 40.5781
L18.5 26.125
Q22.5156 27.4375 29.1562 32.9844
Q35.7969 38.5312 39.1875 40.8125
Q42.5781 43.1094 47.5156 43.1094
Q49.125 43.1094 50.2188 42.1094
Q51.3125 41.1094 51.3125 39.4062
Q51.3125 37.0625 49.625 35.4219
Q47.9531 33.7969 45.6094 33.7969
Q44 33.7969 42.8906 34.8438
Q41.7969 35.8906 41.7969 37.5
Q41.7969 38.625 42.1875 39.4062
Q39.7969 38.4219 37.2812 36.6562
Q34.7656 34.9062 32.7188 33.125
Q30.6719 31.3438 27.7812 28.9531
Q24.9062 26.5625 22.6094 25.2969
Q26.7031 25.2969 31 24.4062
Q35.2969 23.5312 38.4531 21.1875
Q41.6094 18.8438 41.6094 14.7969
Q41.6094 13.1875 41.2188 12.0156
Q40.2812 8.01562 40.2812 6
Q40.2812 1.51562 43.4062 1.51562
Q46.9688 1.51562 48.875 5.46875
Q50.7812 9.42188 52 14.7031
Q52.2031 15.2812 52.7812 15.2812
L54 15.2812
Q54.3906 15.2812 54.6406 15.0156
Q54.8906 14.75 54.8906 14.4062
Q54.8906 14.3125 54.7812 14.1094
Q51.125 -1.125 43.2188 -1.125
Q40.375 -1.125 38.2031 0.1875
Q36.0312 1.51562 34.8594 3.78125
Q33.6875 6.0625 33.6875 8.89062
Q33.6875 10.6875 34.0781 12.2031
Q34.4219 13.5781 34.4219 14.5
Q34.4219 17.7188 31.5625 19.5781
Q28.7188 21.4375 24.8281 22.1094
Q20.9531 22.7969 17.5781 22.7969
L12.5 2.20312
Q12.1562 0.828125 10.9531 -0.140625
Q9.76562 -1.125 8.29688 -1.125
Q7.07812 -1.125 6.20312 -0.34375
Q5.32812 0.4375 5.32812 1.70312" id="Cmmi10-b7"/>
     </defs>
     <g transform="translate(108.38 134.325625)scale(0.08 -0.08)">
      <use transform="translate(0.0 0.8125)" xlink:href="#Cmmi10-b7"/>
     </g>
    </g>
   </g>
   <g id="matplotlib.axis_2">
    <g id="ytick_1">
     <g id="line2d_15">
      <defs>
       <path d="
M0 0
L-4 0" id="mcb0005524f" style="stroke:#000000;stroke-width:0.5;"/>
      </defs>
      <g>
       <use style="stroke:#000000;stroke-width:0.5;" x="43.2" xlink:href="#mcb0005524f" y="109.44"/>
      </g>
     </g>
     <g id="text_4">
      <!-- 0.00 -->
      <defs>
       <path d="
M10.6875 12.4062
L21 12.4062
L21 0
L10.6875 0
z
" id="DejaVuSans-2e"/>
      </defs>
      <g transform="translate(22.6346875 111.095625)scale(0.06 -0.06)">
       <use xlink:href="#DejaVuSans-30"/>
       <use x="63.623046875" xlink:href="#DejaVuSans-2e"/>
       <use x="95.41015625" xlink:href="#DejaVuSans-30"/>
       <use x="159.033203125" xlink:href="#DejaVuSans-30"/>
      </g>
     </g>
    </g>
    <g id="ytick_2">
     <g id="line2d_16">
      <g>
       <use style="stroke:#000000;stroke-width:0.5;" x="43.2" xlink:href="#mcb0005524f" y="59.04"/>
      </g>
     </g>
     <g id="text_5">
      <!-- 0.50 -->
      <defs>
       <path d="
M10.7969 72.9062
L49.5156 72.9062
L49.5156 64.5938
L19.8281 64.5938
L19.8281 46.7344
Q21.9688 47.4688 24.1094 47.8281
Q26.2656 48.1875 28.4219 48.1875
Q40.625 48.1875 47.75 41.5
Q54.8906 34.8125 54.8906 23.3906
Q54.8906 11.625 47.5625 5.09375
Q40.2344 -1.42188 26.9062 -1.42188
Q22.3125 -1.42188 17.5469 -0.640625
Q12.7969 0.140625 7.71875 1.70312
L7.71875 11.625
Q12.1094 9.23438 16.7969 8.0625
Q21.4844 6.89062 26.7031 6.89062
Q35.1562 6.89062 40.0781 11.3281
Q45.0156 15.7656 45.0156 23.3906
Q45.0156 31 40.0781 35.4375
Q35.1562 39.8906 26.7031 39.8906
Q22.75 39.8906 18.8125 39.0156
Q14.8906 38.1406 10.7969 36.2812
z
" id="DejaVuSans-35"/>
      </defs>
      <g transform="translate(22.6346875 60.695625)scale(0.06 -0.06)">
       <use xlink:href="#DejaVuSans-30"/>
       <use x="63.623046875" xlink:href="#DejaVuSans-2e"/>
       <use x="95.41015625" xlink:href="#DejaVuSans-35"/>
       <use x="159.033203125" xlink:href="#DejaVuSans-30"/>
      </g>
     </g>
    </g>
    <g id="ytick_3">
     <g id="line2d_17">
      <g>
       <use style="stroke:#000000;stroke-width:0.5;" x="43.2" xlink:href="#mcb0005524f" y="8.64"/>
      </g>
     </g>
     <g id="text_6">
      <!-- 1.00 -->
      <defs>
       <path d="
M12.4062 8.29688
L28.5156 8.29688
L28.5156 63.9219
L10.9844 60.4062
L10.9844 69.3906
L28.4219 72.9062
L38.2812 72.9062
L38.2812 8.29688
L54.3906 8.29688
L54.3906 0
L12.4062 0
z
" id="DejaVuSans-31"/>
      </defs>
      <g transform="translate(22.898125 10.295625)scale(0.06 -0.06)">
       <use xlink:href="#DejaVuSans-31"/>
       <use x="63.623046875" xlink:href="#DejaVuSans-2e"/>
       <use x="95.41015625" xlink:href="#DejaVuSans-30"/>
       <use x="159.033203125" xlink:href="#DejaVuSans-30"/>
      </g>
     </g>
    </g>
    <g id="text_7">
     <!-- $\langle m_A \rangle$ -->
     <defs>
      <path d="
M7.8125 -114.016
Q7.8125 -113.484 8.01562 -113.281
L33.1094 -56
L8.01562 1.3125
Q7.8125 1.51562 7.8125 2
Q7.8125 2.73438 8.39062 3.35938
Q8.98438 4 9.8125 4
Q10.9844 4 11.7188 2.78125
L37.2031 -55.3281
Q37.3125 -55.5156 37.3125 -56
Q37.3125 -56.5 37.2031 -56.7812
L11.7188 -114.797
Q10.9375 -116.016 9.8125 -116.016
Q8.98438 -116.016 8.39062 -115.375
Q7.8125 -114.75 7.8125 -114.016" id="Cmex10-ae"/>
      <path d="
M7.71875 1.70312
Q7.71875 2.29688 7.8125 2.59375
L15.2812 32.4219
Q16.0156 35.2031 16.0156 37.3125
Q16.0156 41.6094 13.0938 41.6094
Q9.96875 41.6094 8.45312 37.8594
Q6.9375 34.125 5.51562 28.4219
Q5.51562 28.125 5.21875 27.9531
Q4.9375 27.7812 4.6875 27.7812
L3.51562 27.7812
Q3.17188 27.7812 2.92188 28.1406
Q2.6875 28.5156 2.6875 28.8125
Q3.76562 33.1562 4.76562 36.1719
Q5.76562 39.2031 7.89062 41.6875
Q10.0156 44.1875 13.1875 44.1875
Q16.9375 44.1875 19.8125 41.8125
Q22.7031 39.4531 22.7031 35.7969
Q25.6875 39.7031 29.6875 41.9375
Q33.6875 44.1875 38.1875 44.1875
Q42.9219 44.1875 46.3594 41.7656
Q49.8125 39.3594 49.8125 34.9062
Q52.875 39.2656 57 41.7188
Q61.1406 44.1875 66.0156 44.1875
Q71.1875 44.1875 74.3281 41.375
Q77.4844 38.5781 77.4844 33.4062
Q77.4844 29.2969 75.6562 23.4844
Q73.8281 17.6719 71.0938 10.5
Q69.6719 7.03125 69.6719 4.5
Q69.6719 1.51562 72.0156 1.51562
Q75.9219 1.51562 78.5156 5.70312
Q81.1094 9.90625 82.1719 14.7031
Q82.4688 15.2812 83.0156 15.2812
L84.1875 15.2812
Q84.5781 15.2812 84.8438 15.0156
Q85.1094 14.75 85.1094 14.4062
Q85.1094 14.3125 85.0156 14.1094
Q83.6406 8.45312 80.25 3.65625
Q76.8594 -1.125 71.7812 -1.125
Q68.2656 -1.125 65.7656 1.29688
Q63.2812 3.71875 63.2812 7.17188
Q63.2812 8.9375 64.1094 11.0781
Q66.9375 18.6094 68.8125 24.5156
Q70.7031 30.4219 70.7031 34.9062
Q70.7031 37.7031 69.5781 39.6562
Q68.4531 41.6094 65.8281 41.6094
Q60.3594 41.6094 56.3438 38.25
Q52.3438 34.9062 49.4219 29.3906
Q49.2188 28.4219 49.125 27.875
L42.6719 2.20312
Q42.3281 0.828125 41.125 -0.140625
Q39.9375 -1.125 38.4844 -1.125
Q37.3125 -1.125 36.4062 -0.34375
Q35.5 0.4375 35.5 1.70312
Q35.5 2.29688 35.5938 2.59375
L42 28.0781
Q43.0156 32.1719 43.0156 34.9062
Q43.0156 37.7031 41.8594 39.6562
Q40.7188 41.6094 37.9844 41.6094
Q34.3281 41.6094 31.25 39.9844
Q28.1719 38.375 25.875 35.7188
Q23.5781 33.0625 21.6875 29.3906
L14.8906 2.20312
Q14.5469 0.828125 13.3438 -0.140625
Q12.1562 -1.125 10.6875 -1.125
Q9.46875 -1.125 8.59375 -0.34375
Q7.71875 0.4375 7.71875 1.70312" id="Cmmi10-6d"/>
      <path d="
M4.5 0
Q3.51562 0 3.51562 1.3125
Q3.90625 3.51562 4.78125 3.51562
Q8.84375 3.51562 11.7969 5.125
Q14.75 6.73438 16.8906 10.1094
Q17.0938 10.2969 17.0938 10.2969
L52.7812 70.5156
Q53.5625 71.5781 54.6875 71.5781
L56 71.5781
Q56.2969 71.5781 56.5938 71.4531
Q56.8906 71.3438 57.1094 71.0625
Q57.3281 70.7969 57.3281 70.5156
L63.375 5.90625
Q63.375 5.46875 63.8125 4.59375
Q64.7969 3.51562 71.2969 3.51562
Q72.3125 3.51562 72.3125 2.20312
Q71.9688 0.875 71.75 0.4375
Q71.5312 0 70.6094 0
L45.6094 0
Q44.6719 0 44.6719 1.3125
Q45.2188 3.51562 46 3.51562
Q53.9062 3.51562 54.3906 6.20312
L52.875 22.7031
L28.2188 22.7031
L20.2188 9.28125
Q19.4844 8.20312 19.4844 6.78125
Q19.4844 5.03125 21.1719 4.26562
Q22.8594 3.51562 24.9062 3.51562
Q25.875 3.51562 25.875 2.20312
Q25.5312 0.78125 25.3281 0.390625
Q25.1406 0 24.2188 0
z

M30.1719 26.2188
L52.4844 26.2188
L49.5156 58.5938
z
" id="Cmmi10-41"/>
      <path d="
M35.5 -114.797
L10.0156 -56.7812
Q9.8125 -56.5 9.8125 -56
Q9.8125 -55.5156 10.0156 -55.3281
L35.5 2.78125
Q35.9844 4 37.3125 4
Q38.0312 4 38.6719 3.35938
Q39.3125 2.73438 39.3125 2
Q39.3125 1.51562 39.2031 1.3125
L14.0156 -56
L39.2031 -113.281
Q39.3125 -113.484 39.3125 -114.016
Q39.3125 -114.75 38.6719 -115.375
Q38.0312 -116.016 37.3125 -116.016
Q36.0312 -116.016 35.5 -114.797" id="Cmex10-ad"/>
     </defs>
     <g transform="translate(15.5546875 69.36)rotate(-90.0)scale(0.08 -0.08)">
      <use transform="translate(0.0 94.0)" xlink:href="#Cmex10-ad"/>
      <use transform="translate(47.216796875 0.658854166667)" xlink:href="#Cmmi10-6d"/>
      <use transform="translate(135.009765625 -24.8505208333)scale(0.7)" xlink:href="#Cmmi10-41"/>
      <use transform="translate(210.009765625 94.0)" xlink:href="#Cmex10-ae"/>
     </g>
    </g>
   </g>
   <g id="patch_3">
    <path d="
M43.2 109.44
L178.2 109.44" style="fill:none;stroke:#000000;stroke-width:0.5;"/>
   </g>
   <g id="patch_4">
    <path d="
M43.2 109.44
L43.2 8.64" style="fill:none;stroke:#000000;stroke-width:0.5;"/>
   </g>
   <g id="legend_1">
    <g id="LineCollection_5">
     <defs>
      <path d="
M54.6 -124.501
L54.6 -130.501" id="C4_0_80c15df232"/>
     </defs>
     <use style="fill:none;stroke:#000000;stroke-width:0.8;" x="0.0" xlink:href="#C4_0_80c15df232" y="144.0"/>
    </g>
    <g id="line2d_18">
     <g>
      <use style="stroke:#000000;stroke-width:0.8;" x="54.6" xlink:href="#m0f9b2572c5" y="19.4990625"/>
     </g>
    </g>
    <g id="line2d_19">
     <g>
      <use style="stroke:#000000;stroke-width:0.8;" x="54.6" xlink:href="#m0f9b2572c5" y="13.4990625"/>
     </g>
    </g>
    <g id="line2d_20">
     <path d="
M48.6 16.4991
L60.6 16.4991" style="fill:none;stroke:#000000;stroke-linecap:square;stroke-width:0.8;"/>
    </g>
    <g id="line2d_21">
     <g>
      <use style="stroke:#000000;stroke-linejoin:miter;stroke-width:0.5;" x="54.6" xlink:href="#m832fb497ba" y="16.4990625"/>
     </g>
    </g>
    <g id="text_8">
     <!-- E, K=500 -->
     <defs>
      <path d="
M9.8125 72.9062
L55.9062 72.9062
L55.9062 64.5938
L19.6719 64.5938
L19.6719 43.0156
L54.3906 43.0156
L54.3906 34.7188
L19.6719 34.7188
L19.6719 8.29688
L56.7812 8.29688
L56.7812 0
L9.8125 0
z
" id="DejaVuSans-45"/>
      <path id="DejaVuSans-20"/>
      <path d="
M10.5938 45.4062
L73.1875 45.4062
L73.1875 37.2031
L10.5938 37.2031
z

M10.5938 25.4844
L73.1875 25.4844
L73.1875 17.1875
L10.5938 17.1875
z
" id="DejaVuSans-3d"/>
      <path d="
M9.8125 72.9062
L19.6719 72.9062
L19.6719 42.0938
L52.3906 72.9062
L65.0938 72.9062
L28.9062 38.9219
L67.6719 0
L54.6875 0
L19.6719 35.1094
L19.6719 0
L9.8125 0
z
" id="DejaVuSans-4b"/>
      <path d="
M11.7188 12.4062
L22.0156 12.4062
L22.0156 4
L14.0156 -11.625
L7.71875 -11.625
L11.7188 4
z
" id="DejaVuSans-2c"/>
     </defs>
     <g transform="translate(65.4 18.5990625)scale(0.06 -0.06)">
      <use xlink:href="#DejaVuSans-45"/>
      <use x="63.18359375" xlink:href="#DejaVuSans-2c"/>
      <use x="94.970703125" xlink:href="#DejaVuSans-20"/>
      <use x="126.7578125" xlink:href="#DejaVuSans-4b"/>
      <use x="192.333984375" xlink:href="#DejaVuSans-3d"/>
      <use x="276.123046875" xlink:href="#DejaVuSans-35"/>
      <use x="339.74609375" xlink:href="#DejaVuSans-30"/>
      <use x="403.369140625" xlink:href="#DejaVuSans-30"/>
     </g>
    </g>
    <g id="LineCollection_6">
     <defs>
      <path d="
M54.6 -115.694
L54.6 -121.694" id="C5_0_7ade435087"/>
     </defs>
     <use style="fill:none;stroke:#ff0000;stroke-width:0.8;" x="0.0" xlink:href="#C5_0_7ade435087" y="144.0"/>
    </g>
    <g id="line2d_22">
     <g>
      <use style="fill:#ff0000;stroke:#ff0000;stroke-width:0.8;" x="54.6" xlink:href="#ma19bf96cc0" y="28.3059375"/>
     </g>
    </g>
    <g id="line2d_23">
     <g>
      <use style="fill:#ff0000;stroke:#ff0000;stroke-width:0.8;" x="54.6" xlink:href="#ma19bf96cc0" y="22.3059375"/>
     </g>
    </g>
    <g id="line2d_24">
     <path d="
M48.6 25.3059
L60.6 25.3059" style="fill:none;stroke:#ff0000;stroke-linecap:square;stroke-width:0.8;"/>
    </g>
    <g id="line2d_25">
     <g>
      <use style="fill:#ff0000;stroke:#ff0000;stroke-linejoin:miter;stroke-width:0.5;" x="54.6" xlink:href="#m68795ba406" y="25.3059375"/>
     </g>
    </g>
    <g id="text_9">
     <!-- I, K=500 -->
     <defs>
      <path d="
M9.8125 72.9062
L19.6719 72.9062
L19.6719 0
L9.8125 0
z
" id="DejaVuSans-49"/>
     </defs>
     <g transform="translate(65.4 27.4059375)scale(0.06 -0.06)">
      <use xlink:href="#DejaVuSans-49"/>
      <use x="29.4921875" xlink:href="#DejaVuSans-2c"/>
      <use x="61.279296875" xlink:href="#DejaVuSans-20"/>
      <use x="93.06640625" xlink:href="#DejaVuSans-4b"/>
      <use x="158.642578125" xlink:href="#DejaVuSans-3d"/>
      <use x="242.431640625" xlink:href="#DejaVuSans-35"/>
      <use x="306.0546875" xlink:href="#DejaVuSans-30"/>
      <use x="369.677734375" xlink:href="#DejaVuSans-30"/>
     </g>
    </g>
    <g id="LineCollection_7">
     <defs>
      <path d="
M54.6 -106.887
L54.6 -112.887" id="C6_0_49946ae598"/>
     </defs>
     <use style="fill:none;stroke:#000000;stroke-width:0.8;" x="0.0" xlink:href="#C6_0_49946ae598" y="144.0"/>
    </g>
    <g id="line2d_26">
     <g>
      <use style="stroke:#000000;stroke-width:0.8;" x="54.6" xlink:href="#m0f9b2572c5" y="37.1128125"/>
     </g>
    </g>
    <g id="line2d_27">
     <g>
      <use style="stroke:#000000;stroke-width:0.8;" x="54.6" xlink:href="#m0f9b2572c5" y="31.1128125"/>
     </g>
    </g>
    <g id="line2d_28">
     <path d="
M48.6 34.1128
L60.6 34.1128" style="fill:none;stroke:#000000;stroke-linecap:square;stroke-width:0.8;"/>
    </g>
    <g id="line2d_29">
     <g>
      <use style="stroke:#000000;stroke-width:0.5;" x="54.6" xlink:href="#m76eb5f4da3" y="34.1128125"/>
     </g>
    </g>
    <g id="text_10">
     <!-- E, K=1000 -->
     <g transform="translate(65.4 36.2128125)scale(0.06 -0.06)">
      <use xlink:href="#DejaVuSans-45"/>
      <use x="63.18359375" xlink:href="#DejaVuSans-2c"/>
      <use x="94.970703125" xlink:href="#DejaVuSans-20"/>
      <use x="126.7578125" xlink:href="#DejaVuSans-4b"/>
      <use x="192.333984375" xlink:href="#DejaVuSans-3d"/>
      <use x="276.123046875" xlink:href="#DejaVuSans-31"/>
      <use x="339.74609375" xlink:href="#DejaVuSans-30"/>
      <use x="403.369140625" xlink:href="#DejaVuSans-30"/>
      <use x="466.9921875" xlink:href="#DejaVuSans-30"/>
     </g>
    </g>
    <g id="LineCollection_8">
     <defs>
      <path d="
M54.6 -98.0803
L54.6 -104.08" id="C7_0_1427d2205b"/>
     </defs>
     <use style="fill:none;stroke:#ff0000;stroke-width:0.8;" x="0.0" xlink:href="#C7_0_1427d2205b" y="144.0"/>
    </g>
    <g id="line2d_30">
     <g>
      <use style="fill:#ff0000;stroke:#ff0000;stroke-width:0.8;" x="54.6" xlink:href="#ma19bf96cc0" y="45.9196875"/>
     </g>
    </g>
    <g id="line2d_31">
     <g>
      <use style="fill:#ff0000;stroke:#ff0000;stroke-width:0.8;" x="54.6" xlink:href="#ma19bf96cc0" y="39.9196875"/>
     </g>
    </g>
    <g id="line2d_32">
     <path d="
M48.6 42.9197
L60.6 42.9197" style="fill:none;stroke:#ff0000;stroke-linecap:square;stroke-width:0.8;"/>
    </g>
    <g id="line2d_33">
     <g>
      <use style="fill:#ff0000;stroke:#ff0000;stroke-width:0.5;" x="54.6" xlink:href="#meb91f9ed46" y="42.9196875"/>
     </g>
    </g>
    <g id="text_11">
     <!-- I, K=1000 -->
     <g transform="translate(65.4 45.0196875)scale(0.06 -0.06)">
      <use xlink:href="#DejaVuSans-49"/>
      <use x="29.4921875" xlink:href="#DejaVuSans-2c"/>
      <use x="61.279296875" xlink:href="#DejaVuSans-20"/>
      <use x="93.06640625" xlink:href="#DejaVuSans-4b"/>
      <use x="158.642578125" xlink:href="#DejaVuSans-3d"/>
      <use x="242.431640625" xlink:href="#DejaVuSans-31"/>
      <use x="306.0546875" xlink:href="#DejaVuSans-30"/>
      <use x="369.677734375" xlink:href="#DejaVuSans-30"/>
      <use x="433.30078125" xlink:href="#DejaVuSans-30"/>
     </g>
    </g>
   </g>
  </g>
 </g>
 <defs>
  <clipPath id="pa8676777ac">
   <rect height="100.8" width="135.0" x="43.2" y="8.64"/>
  </clipPath>
 </defs>
</svg>
