<?xml version="1.0" encoding="utf-8" standalone="no"?>
<!DOCTYPE svg PUBLIC "-//W3C//DTD SVG 1.1//EN"
  "http://www.w3.org/Graphics/SVG/1.1/DTD/svg11.dtd">
<!-- Created with matplotlib (http://matplotlib.org/) -->
<svg height="144pt" version="1.1" viewBox="0 0 180 144" width="180pt" xmlns="http://www.w3.org/2000/svg" xmlns:xlink="http://www.w3.org/1999/xlink">
 <defs>
  <style type="text/css">
*{stroke-linecap:butt;stroke-linejoin:round;}
  </style>
 </defs>
 <g id="figure_1">
  <g id="patch_1">
   <path d="
M0 144
L180 144
L180 0
L0 0
z
" style="fill:#ffffff;"/>
  </g>
  <g id="axes_1">
   <g id="patch_2">
    <path d="
M43.2 109.44
L178.2 109.44
L178.2 8.64
L43.2 8.64
z
" style="fill:#ffffff;"/>
   </g>
   <g id="LineCollection_1">
    <defs>
     <path d="
M76.95 -76.067
L76.95 -76.2852" id="C0_0_91a57e1dab"/>
     <path d="
M144.45 -129.387
L144.45 -129.671" id="C0_1_1461f9b1f6"/>
    </defs>
    <g clip-path="url(#pa8676777ac)">
     <use style="fill:none;stroke:#000000;stroke-width:0.8;" x="0.0" xlink:href="#C0_0_91a57e1dab" y="144.0"/>
    </g>
    <g clip-path="url(#pa8676777ac)">
     <use style="fill:none;stroke:#000000;stroke-width:0.8;" x="0.0" xlink:href="#C0_1_1461f9b1f6" y="144.0"/>
    </g>
   </g>
   <g id="LineCollection_2">
    <defs>
     <path d="
M76.95 -68.3024
L76.95 -68.4241" id="C1_0_2afe2bbc98"/>
     <path d="
M144.45 -54.1286
L144.45 -54.206" id="C1_1_9bdeb82893"/>
    </defs>
    <g clip-path="url(#pa8676777ac)">
     <use style="fill:none;stroke:#ff0000;stroke-width:0.8;" x="0.0" xlink:href="#C1_0_2afe2bbc98" y="144.0"/>
    </g>
    <g clip-path="url(#pa8676777ac)">
     <use style="fill:none;stroke:#ff0000;stroke-width:0.8;" x="0.0" xlink:href="#C1_1_9bdeb82893" y="144.0"/>
    </g>
   </g>
   <g id="LineCollection_3">
    <defs>
     <path d="
M76.95 -78.0842
L76.95 -78.1697" id="C2_0_fb086fcfd4"/>
     <path d="
M144.45 -133.955
L144.45 -134.376" id="C2_1_e1aab2f01a"/>
    </defs>
    <g clip-path="url(#pa8676777ac)">
     <use style="fill:none;stroke:#000000;stroke-width:0.8;" x="0.0" xlink:href="#C2_0_fb086fcfd4" y="144.0"/>
    </g>
    <g clip-path="url(#pa8676777ac)">
     <use style="fill:none;stroke:#000000;stroke-width:0.8;" x="0.0" xlink:href="#C2_1_e1aab2f01a" y="144.0"/>
    </g>
   </g>
   <g id="LineCollection_4">
    <defs>
     <path d="
M76.95 -69.1114
L76.95 -69.2437" id="C3_0_12e1076094"/>
     <path d="
M144.45 -57.1541
L144.45 -57.2016" id="C3_1_b6cc0d91e6"/>
    </defs>
    <g clip-path="url(#pa8676777ac)">
     <use style="fill:none;stroke:#ff0000;stroke-width:0.8;" x="0.0" xlink:href="#C3_0_12e1076094" y="144.0"/>
    </g>
    <g clip-path="url(#pa8676777ac)">
     <use style="fill:none;stroke:#ff0000;stroke-width:0.8;" x="0.0" xlink:href="#C3_1_b6cc0d91e6" y="144.0"/>
    </g>
   </g>
   <g id="line2d_1">
    <defs>
     <path d="
M3 1.83697e-16
L-3 -1.83697e-16" id="m0f9b2572c5" style="stroke:#000000;stroke-width:0.8;"/>
    </defs>
    <g clip-path="url(#pa8676777ac)">
     <use style="stroke:#000000;stroke-width:0.8;" x="76.95" xlink:href="#m0f9b2572c5" y="67.9329557123"/>
     <use style="stroke:#000000;stroke-width:0.8;" x="144.45" xlink:href="#m0f9b2572c5" y="14.6127990662"/>
    </g>
   </g>
   <g id="line2d_2">
    <g clip-path="url(#pa8676777ac)">
     <use style="stroke:#000000;stroke-width:0.8;" x="76.95" xlink:href="#m0f9b2572c5" y="67.7147543216"/>
     <use style="stroke:#000000;stroke-width:0.8;" x="144.45" xlink:href="#m0f9b2572c5" y="14.3293677944"/>
    </g>
   </g>
   <g id="line2d_3">
    <path clip-path="url(#pa8676777ac)" d="
M76.95 67.8239
L144.45 14.4711" style="fill:none;stroke:#000000;stroke-linecap:square;stroke-width:0.8;"/>
    <defs>
     <path d="
M-2 2
L2 2
L2 -2
L-2 -2
z
" id="m832fb497ba" style="stroke:#000000;stroke-linejoin:miter;stroke-width:0.5;"/>
    </defs>
    <g clip-path="url(#pa8676777ac)">
     <use style="stroke:#000000;stroke-linejoin:miter;stroke-width:0.5;" x="76.95" xlink:href="#m832fb497ba" y="67.823855017"/>
     <use style="stroke:#000000;stroke-linejoin:miter;stroke-width:0.5;" x="144.45" xlink:href="#m832fb497ba" y="14.4710834303"/>
    </g>
   </g>
   <g id="line2d_4">
    <defs>
     <path d="
M3 1.83697e-16
L-3 -1.83697e-16" id="ma19bf96cc0" style="stroke:#ff0000;stroke-width:0.8;"/>
    </defs>
    <g clip-path="url(#pa8676777ac)">
     <use style="fill:#ff0000;stroke:#ff0000;stroke-width:0.8;" x="76.95" xlink:href="#ma19bf96cc0" y="75.6976302748"/>
     <use style="fill:#ff0000;stroke:#ff0000;stroke-width:0.8;" x="144.45" xlink:href="#ma19bf96cc0" y="89.8713924639"/>
    </g>
   </g>
   <g id="line2d_5">
    <g clip-path="url(#pa8676777ac)">
     <use style="fill:#ff0000;stroke:#ff0000;stroke-width:0.8;" x="76.95" xlink:href="#ma19bf96cc0" y="75.575949192"/>
     <use style="fill:#ff0000;stroke:#ff0000;stroke-width:0.8;" x="144.45" xlink:href="#ma19bf96cc0" y="89.7939677993"/>
    </g>
   </g>
   <g id="line2d_6">
    <path clip-path="url(#pa8676777ac)" d="
M76.95 75.6368
L144.45 89.8327" style="fill:none;stroke:#ff0000;stroke-linecap:square;stroke-width:0.8;"/>
    <defs>
     <path d="
M-2 2
L2 2
L2 -2
L-2 -2
z
" id="m68795ba406" style="stroke:#ff0000;stroke-linejoin:miter;stroke-width:0.5;"/>
    </defs>
    <g clip-path="url(#pa8676777ac)">
     <use style="fill:#ff0000;stroke:#ff0000;stroke-linejoin:miter;stroke-width:0.5;" x="76.95" xlink:href="#m68795ba406" y="75.6367897334"/>
     <use style="fill:#ff0000;stroke:#ff0000;stroke-linejoin:miter;stroke-width:0.5;" x="144.45" xlink:href="#m68795ba406" y="89.8326801316"/>
    </g>
   </g>
   <g id="line2d_7">
    <g clip-path="url(#pa8676777ac)">
     <use style="stroke:#000000;stroke-width:0.8;" x="76.95" xlink:href="#m0f9b2572c5" y="65.9158099238"/>
     <use style="stroke:#000000;stroke-width:0.8;" x="144.45" xlink:href="#m0f9b2572c5" y="10.0452444792"/>
    </g>
   </g>
   <g id="line2d_8">
    <g clip-path="url(#pa8676777ac)">
     <use style="stroke:#000000;stroke-width:0.8;" x="76.95" xlink:href="#m0f9b2572c5" y="65.830347505"/>
     <use style="stroke:#000000;stroke-width:0.8;" x="144.45" xlink:href="#m0f9b2572c5" y="9.62392944429"/>
    </g>
   </g>
   <g id="line2d_9">
    <path clip-path="url(#pa8676777ac)" d="
M76.95 65.8731
L144.45 9.83459" style="fill:none;stroke:#000000;stroke-linecap:square;stroke-width:0.8;"/>
    <defs>
     <path d="
M0 2
C0.530406 2 1.03916 1.78927 1.41421 1.41421
C1.78927 1.03916 2 0.530406 2 0
C2 -0.530406 1.78927 -1.03916 1.41421 -1.41421
C1.03916 -1.78927 0.530406 -2 0 -2
C-0.530406 -2 -1.03916 -1.78927 -1.41421 -1.41421
C-1.78927 -1.03916 -2 -0.530406 -2 0
C-2 0.530406 -1.78927 1.03916 -1.41421 1.41421
C-1.03916 1.78927 -0.530406 2 0 2
z
" id="m76eb5f4da3" style="stroke:#000000;stroke-width:0.5;"/>
    </defs>
    <g clip-path="url(#pa8676777ac)">
     <use style="stroke:#000000;stroke-width:0.5;" x="76.95" xlink:href="#m76eb5f4da3" y="65.8730787144"/>
     <use style="stroke:#000000;stroke-width:0.5;" x="144.45" xlink:href="#m76eb5f4da3" y="9.83458696177"/>
    </g>
   </g>
   <g id="line2d_10">
    <g clip-path="url(#pa8676777ac)">
     <use style="fill:#ff0000;stroke:#ff0000;stroke-width:0.8;" x="76.95" xlink:href="#ma19bf96cc0" y="74.8885633807"/>
     <use style="fill:#ff0000;stroke:#ff0000;stroke-width:0.8;" x="144.45" xlink:href="#ma19bf96cc0" y="86.8458965635"/>
    </g>
   </g>
   <g id="line2d_11">
    <g clip-path="url(#pa8676777ac)">
     <use style="fill:#ff0000;stroke:#ff0000;stroke-width:0.8;" x="76.95" xlink:href="#ma19bf96cc0" y="74.7562844508"/>
     <use style="fill:#ff0000;stroke:#ff0000;stroke-width:0.8;" x="144.45" xlink:href="#ma19bf96cc0" y="86.7984419935"/>
    </g>
   </g>
   <g id="line2d_12">
    <path clip-path="url(#pa8676777ac)" d="
M76.95 74.8224
L144.45 86.8222" style="fill:none;stroke:#ff0000;stroke-linecap:square;stroke-width:0.8;"/>
    <defs>
     <path d="
M0 2
C0.530406 2 1.03916 1.78927 1.41421 1.41421
C1.78927 1.03916 2 0.530406 2 0
C2 -0.530406 1.78927 -1.03916 1.41421 -1.41421
C1.03916 -1.78927 0.530406 -2 0 -2
C-0.530406 -2 -1.03916 -1.78927 -1.41421 -1.41421
C-1.78927 -1.03916 -2 -0.530406 -2 0
C-2 0.530406 -1.78927 1.03916 -1.41421 1.41421
C-1.03916 1.78927 -0.530406 2 0 2
z
" id="meb91f9ed46" style="stroke:#ff0000;stroke-width:0.5;"/>
    </defs>
    <g clip-path="url(#pa8676777ac)">
     <use style="fill:#ff0000;stroke:#ff0000;stroke-width:0.5;" x="76.95" xlink:href="#meb91f9ed46" y="74.8224239157"/>
     <use style="fill:#ff0000;stroke:#ff0000;stroke-width:0.5;" x="144.45" xlink:href="#meb91f9ed46" y="86.8221692785"/>
    </g>
   </g>
   <g id="matplotlib.axis_1">
    <g id="xtick_1">
     <g id="line2d_13">
      <defs>
       <path d="
M0 0
L0 4" id="m741efc42ff" style="stroke:#000000;stroke-width:0.5;"/>
      </defs>
      <g>
       <use style="stroke:#000000;stroke-width:0.5;" x="76.95" xlink:href="#m741efc42ff" y="109.44"/>
      </g>
     </g>
     <g id="text_1">
      <!-- 0 -->
      <defs>
       <path d="
M31.7812 66.4062
Q24.1719 66.4062 20.3281 58.9062
Q16.5 51.4219 16.5 36.375
Q16.5 21.3906 20.3281 13.8906
Q24.1719 6.39062 31.7812 6.39062
Q39.4531 6.39062 43.2812 13.8906
Q47.125 21.3906 47.125 36.375
Q47.125 51.4219 43.2812 58.9062
Q39.4531 66.4062 31.7812 66.4062
M31.7812 74.2188
Q44.0469 74.2188 50.5156 64.5156
Q56.9844 54.8281 56.9844 36.375
Q56.9844 17.9688 50.5156 8.26562
Q44.0469 -1.42188 31.7812 -1.42188
Q19.5312 -1.42188 13.0625 8.26562
Q6.59375 17.9688 6.59375 36.375
Q6.59375 54.8281 13.0625 64.5156
Q19.5312 74.2188 31.7812 74.2188" id="DejaVuSans-30"/>
      </defs>
      <g transform="translate(75.43828125 121.9990625)scale(0.06 -0.06)">
       <use xlink:href="#DejaVuSans-30"/>
      </g>
     </g>
    </g>
    <g id="xtick_2">
     <g id="line2d_14">
      <g>
       <use style="stroke:#000000;stroke-width:0.5;" x="144.45" xlink:href="#m741efc42ff" y="109.44"/>
      </g>
     </g>
     <g id="text_2">
      <!-- 8 -->
      <defs>
       <path d="
M31.7812 34.625
Q24.75 34.625 20.7188 30.8594
Q16.7031 27.0938 16.7031 20.5156
Q16.7031 13.9219 20.7188 10.1562
Q24.75 6.39062 31.7812 6.39062
Q38.8125 6.39062 42.8594 10.1719
Q46.9219 13.9688 46.9219 20.5156
Q46.9219 27.0938 42.8906 30.8594
Q38.875 34.625 31.7812 34.625
M21.9219 38.8125
Q15.5781 40.375 12.0312 44.7188
Q8.5 49.0781 8.5 55.3281
Q8.5 64.0625 14.7188 69.1406
Q20.9531 74.2188 31.7812 74.2188
Q42.6719 74.2188 48.875 69.1406
Q55.0781 64.0625 55.0781 55.3281
Q55.0781 49.0781 51.5312 44.7188
Q48 40.375 41.7031 38.8125
Q48.8281 37.1562 52.7969 32.3125
Q56.7812 27.4844 56.7812 20.5156
Q56.7812 9.90625 50.3125 4.23438
Q43.8438 -1.42188 31.7812 -1.42188
Q19.7344 -1.42188 13.25 4.23438
Q6.78125 9.90625 6.78125 20.5156
Q6.78125 27.4844 10.7812 32.3125
Q14.7969 37.1562 21.9219 38.8125
M18.3125 54.3906
Q18.3125 48.7344 21.8438 45.5625
Q25.3906 42.3906 31.7812 42.3906
Q38.1406 42.3906 41.7188 45.5625
Q45.3125 48.7344 45.3125 54.3906
Q45.3125 60.0625 41.7188 63.2344
Q38.1406 66.4062 31.7812 66.4062
Q25.3906 66.4062 21.8438 63.2344
Q18.3125 60.0625 18.3125 54.3906" id="DejaVuSans-38"/>
      </defs>
      <g transform="translate(142.95 121.9990625)scale(0.06 -0.06)">
       <use xlink:href="#DejaVuSans-38"/>
      </g>
     </g>
    </g>
    <g id="text_3">
     <!-- $\kappa$ -->
     <defs>
      <path d="
M5.32812 1.70312
Q5.32812 2.29688 5.42188 2.59375
L14.9844 41.0156
Q15.375 42.4375 16.5469 43.3125
Q17.7188 44.1875 19.1875 44.1875
Q20.4531 44.1875 21.3281 43.4219
Q22.2188 42.6719 22.2188 41.4062
Q22.2188 41.1094 22.1875 40.9375
Q22.1719 40.7656 22.125 40.5781
L18.5 26.125
Q22.5156 27.4375 29.1562 32.9844
Q35.7969 38.5312 39.1875 40.8125
Q42.5781 43.1094 47.5156 43.1094
Q49.125 43.1094 50.2188 42.1094
Q51.3125 41.1094 51.3125 39.4062
Q51.3125 37.0625 49.625 35.4219
Q47.9531 33.7969 45.6094 33.7969
Q44 33.7969 42.8906 34.8438
Q41.7969 35.8906 41.7969 37.5
Q41.7969 38.625 42.1875 39.4062
Q39.7969 38.4219 37.2812 36.6562
Q34.7656 34.9062 32.7188 33.125
Q30.6719 31.3438 27.7812 28.9531
Q24.9062 26.5625 22.6094 25.2969
Q26.7031 25.2969 31 24.4062
Q35.2969 23.5312 38.4531 21.1875
Q41.6094 18.8438 41.6094 14.7969
Q41.6094 13.1875 41.2188 12.0156
Q40.2812 8.01562 40.2812 6
Q40.2812 1.51562 43.4062 1.51562
Q46.9688 1.51562 48.875 5.46875
Q50.7812 9.42188 52 14.7031
Q52.2031 15.2812 52.7812 15.2812
L54 15.2812
Q54.3906 15.2812 54.6406 15.0156
Q54.8906 14.75 54.8906 14.4062
Q54.8906 14.3125 54.7812 14.1094
Q51.125 -1.125 43.2188 -1.125
Q40.375 -1.125 38.2031 0.1875
Q36.0312 1.51562 34.8594 3.78125
Q33.6875 6.0625 33.6875 8.89062
Q33.6875 10.6875 34.0781 12.2031
Q34.4219 13.5781 34.4219 14.5
Q34.4219 17.7188 31.5625 19.5781
Q28.7188 21.4375 24.8281 22.1094
Q20.9531 22.7969 17.5781 22.7969
L12.5 2.20312
Q12.1562 0.828125 10.9531 -0.140625
Q9.76562 -1.125 8.29688 -1.125
Q7.07812 -1.125 6.20312 -0.34375
Q5.32812 0.4375 5.32812 1.70312" id="Cmmi10-b7"/>
     </defs>
     <g transform="translate(108.38 134.325625)scale(0.08 -0.08)">
      <use transform="translate(0.0 0.8125)" xlink:href="#Cmmi10-b7"/>
     </g>
    </g>
   </g>
   <g id="matplotlib.axis_2">
    <g id="ytick_1">
     <g id="line2d_15">
      <defs>
       <path d="
M0 0
L-4 0" id="mcb0005524f" style="stroke:#000000;stroke-width:0.5;"/>
      </defs>
      <g>
       <use style="stroke:#000000;stroke-width:0.5;" x="43.2" xlink:href="#mcb0005524f" y="109.44"/>
      </g>
     </g>
     <g id="text_4">
      <!-- 0.00 -->
      <defs>
       <path d="
M10.6875 12.4062
L21 12.4062
L21 0
L10.6875 0
z
" id="DejaVuSans-2e"/>
      </defs>
      <g transform="translate(22.6346875 111.095625)scale(0.06 -0.06)">
       <use xlink:href="#DejaVuSans-30"/>
       <use x="63.623046875" xlink:href="#DejaVuSans-2e"/>
       <use x="95.41015625" xlink:href="#DejaVuSans-30"/>
       <use x="159.033203125" xlink:href="#DejaVuSans-30"/>
      </g>
     </g>
    </g>
    <g id="ytick_2">
     <g id="line2d_16">
      <g>
       <use style="stroke:#000000;stroke-width:0.5;" x="43.2" xlink:href="#mcb0005524f" y="59.04"/>
      </g>
     </g>
     <g id="text_5">
      <!-- 0.25 -->
      <defs>
       <path d="
M19.1875 8.29688
L53.6094 8.29688
L53.6094 0
L7.32812 0
L7.32812 8.29688
Q12.9375 14.1094 22.625 23.8906
Q32.3281 33.6875 34.8125 36.5312
Q39.5469 41.8438 41.4219 45.5312
Q43.3125 49.2188 43.3125 52.7812
Q43.3125 58.5938 39.2344 62.25
Q35.1562 65.9219 28.6094 65.9219
Q23.9688 65.9219 18.8125 64.3125
Q13.6719 62.7031 7.8125 59.4219
L7.8125 69.3906
Q13.7656 71.7812 18.9375 73
Q24.125 74.2188 28.4219 74.2188
Q39.75 74.2188 46.4844 68.5469
Q53.2188 62.8906 53.2188 53.4219
Q53.2188 48.9219 51.5312 44.8906
Q49.8594 40.875 45.4062 35.4062
Q44.1875 33.9844 37.6406 27.2188
Q31.1094 20.4531 19.1875 8.29688" id="DejaVuSans-32"/>
       <path d="
M10.7969 72.9062
L49.5156 72.9062
L49.5156 64.5938
L19.8281 64.5938
L19.8281 46.7344
Q21.9688 47.4688 24.1094 47.8281
Q26.2656 48.1875 28.4219 48.1875
Q40.625 48.1875 47.75 41.5
Q54.8906 34.8125 54.8906 23.3906
Q54.8906 11.625 47.5625 5.09375
Q40.2344 -1.42188 26.9062 -1.42188
Q22.3125 -1.42188 17.5469 -0.640625
Q12.7969 0.140625 7.71875 1.70312
L7.71875 11.625
Q12.1094 9.23438 16.7969 8.0625
Q21.4844 6.89062 26.7031 6.89062
Q35.1562 6.89062 40.0781 11.3281
Q45.0156 15.7656 45.0156 23.3906
Q45.0156 31 40.0781 35.4375
Q35.1562 39.8906 26.7031 39.8906
Q22.75 39.8906 18.8125 39.0156
Q14.8906 38.1406 10.7969 36.2812
z
" id="DejaVuSans-35"/>
      </defs>
      <g transform="translate(22.7603125 60.695625)scale(0.06 -0.06)">
       <use xlink:href="#DejaVuSans-30"/>
       <use x="63.623046875" xlink:href="#DejaVuSans-2e"/>
       <use x="95.41015625" xlink:href="#DejaVuSans-32"/>
       <use x="159.033203125" xlink:href="#DejaVuSans-35"/>
      </g>
     </g>
    </g>
    <g id="ytick_3">
     <g id="line2d_17">
      <g>
       <use style="stroke:#000000;stroke-width:0.5;" x="43.2" xlink:href="#mcb0005524f" y="8.64"/>
      </g>
     </g>
     <g id="text_6">
      <!-- 0.50 -->
      <g transform="translate(22.6346875 10.295625)scale(0.06 -0.06)">
       <use xlink:href="#DejaVuSans-30"/>
       <use x="63.623046875" xlink:href="#DejaVuSans-2e"/>
       <use x="95.41015625" xlink:href="#DejaVuSans-35"/>
       <use x="159.033203125" xlink:href="#DejaVuSans-30"/>
      </g>
     </g>
    </g>
    <g id="text_7">
     <!-- $\langle OSI \rangle$ -->
     <defs>
      <path d="
M30.4219 -2.20312
Q22.9062 -2.20312 17.0938 1.23438
Q11.2812 4.6875 8.125 10.8125
Q4.98438 16.9375 4.98438 24.4219
Q4.98438 35.2969 11.1562 46.0938
Q17.3281 56.8906 27.4375 63.7031
Q37.5469 70.5156 48.5781 70.5156
Q54.2969 70.5156 59.0312 68.4531
Q63.7656 66.4062 67.0312 62.7656
Q70.3125 59.125 72.0938 54.2344
Q73.875 49.3594 73.875 43.6094
Q73.875 35.3594 70.3594 27.1719
Q66.8438 19 60.6094 12.2812
Q54.3906 5.5625 46.625 1.67188
Q38.875 -2.20312 30.4219 -2.20312
M31.2031 0.78125
Q38.4844 0.78125 44.7812 5.39062
Q51.0781 10.0156 55.5156 17.3125
Q59.9688 24.6094 62.3281 32.6406
Q64.7031 40.6719 64.7031 47.6094
Q64.7031 53.0312 62.8438 57.5469
Q60.9844 62.0625 57.125 64.8125
Q53.2656 67.5781 47.9062 67.5781
Q42.625 67.5781 37.6406 65.0312
Q32.6719 62.5 28.6094 58.2969
Q24.4688 54.0469 21.2344 47.7656
Q18.0156 41.5 16.3594 34.5938
Q14.7031 27.6875 14.7031 21.5781
Q14.7031 13.0938 18.875 6.9375
Q23.0469 0.78125 31.2031 0.78125" id="Cmmi10-4f"/>
      <path d="
M6.10938 -2.20312
Q5.8125 -2.20312 5.5625 -1.85938
Q5.32812 -1.51562 5.32812 -1.21875
L11.0781 22.125
Q11.2812 22.7031 11.9219 22.7031
L13.0938 22.7031
Q13.4844 22.7031 13.7031 22.4062
Q13.9219 22.125 13.9219 21.6875
Q13.0938 18.2656 13.0938 15.5781
Q13.0938 8.34375 18.0625 4.82812
Q23.0469 1.3125 30.6094 1.3125
Q33.8906 1.3125 37.0625 2.92188
Q40.2344 4.54688 42.5938 7.125
Q44.9688 9.71875 46.375 12.9062
Q47.7969 16.1094 47.7969 19.3906
Q47.7969 22.9062 45.9375 25.6562
Q44.0938 28.4219 40.8281 29.2031
L28.6094 32.4219
Q23.6875 33.7344 20.75 37.7188
Q17.8281 41.7031 17.8281 46.6875
Q17.8281 52.6875 21.3906 58.25
Q24.9531 63.8125 30.6875 67.1562
Q36.4219 70.5156 42.3906 70.5156
Q46.9688 70.5156 50.7969 68.8281
Q54.6406 67.1406 56.6875 63.4844
L62.4062 70.2188
Q62.9844 70.5156 63.0938 70.5156
L63.7188 70.5156
Q64.1094 70.5156 64.3438 70.1719
Q64.5938 69.8281 64.5938 69.4844
L58.7969 46.2969
Q58.6406 45.6094 58.0156 45.6094
L56.7812 45.6094
Q55.9062 45.6094 55.9062 46.6875
Q56.3906 49.8594 56.3906 52.2031
Q56.3906 56.8438 54.7969 60.2812
Q53.2188 63.7188 50.0156 65.5
Q46.8281 67.2812 42.0938 67.2812
Q38.0938 67.2812 34.125 64.9844
Q30.1719 62.7031 27.7344 58.8906
Q25.2969 55.0781 25.2969 50.9844
Q25.2969 47.75 27.1719 45.2656
Q29.0469 42.7812 32.1719 41.8906
L44.3906 38.7188
Q47.7031 37.8438 50.1719 35.625
Q52.6406 33.4062 53.9062 30.3438
Q55.1719 27.2969 55.1719 23.6875
Q55.1719 18.9531 53.1719 14.3281
Q51.1719 9.71875 47.5781 5.90625
Q44 2.09375 39.4531 -0.046875
Q34.9062 -2.20312 30.1719 -2.20312
Q18.2656 -2.20312 13.0938 4.78125
L7.51562 -1.90625
Q6.9375 -2.20312 6.78125 -2.20312
z
" id="Cmmi10-53"/>
      <path d="
M7.8125 -114.016
Q7.8125 -113.484 8.01562 -113.281
L33.1094 -56
L8.01562 1.3125
Q7.8125 1.51562 7.8125 2
Q7.8125 2.73438 8.39062 3.35938
Q8.98438 4 9.8125 4
Q10.9844 4 11.7188 2.78125
L37.2031 -55.3281
Q37.3125 -55.5156 37.3125 -56
Q37.3125 -56.5 37.2031 -56.7812
L11.7188 -114.797
Q10.9375 -116.016 9.8125 -116.016
Q8.98438 -116.016 8.39062 -115.375
Q7.8125 -114.75 7.8125 -114.016" id="Cmex10-ae"/>
      <path d="
M4.20312 0
Q3.21875 0 3.21875 1.3125
Q3.60938 3.51562 4.5 3.51562
Q10.4062 3.51562 12.5 3.90625
Q14.7969 4.4375 15.375 6.89062
L29.1094 61.8125
Q29.2969 62.7969 29.2969 63.0938
Q29.2969 63.7188 28.9688 63.9844
Q28.6562 64.2656 27.9844 64.4062
Q25.9844 64.7969 20.4062 64.7969
Q19.3906 64.7969 19.3906 66.1094
Q19.7344 67.3906 19.9219 67.8438
Q20.125 68.3125 21.0938 68.3125
L49.0312 68.3125
Q50 68.3125 50 67
Q49.9531 66.75 49.7969 66.1562
Q49.6562 65.5781 49.4062 65.1875
Q49.1719 64.7969 48.6875 64.7969
Q42.8281 64.7969 40.5781 64.4062
Q38.375 63.875 37.7969 61.375
L24.125 6.5
Q23.875 5.28125 23.875 5.17188
Q23.875 4.9375 23.9531 4.71875
Q24.0312 4.5 24.25 4.32812
Q24.4688 4.15625 24.6875 4.07812
Q24.9062 4 25.2031 3.90625
Q27.0938 3.51562 32.8125 3.51562
Q33.7969 3.51562 33.7969 2.20312
Q33.4531 0.78125 33.25 0.390625
Q33.0625 0 32.0781 0
z
" id="Cmmi10-49"/>
      <path d="
M35.5 -114.797
L10.0156 -56.7812
Q9.8125 -56.5 9.8125 -56
Q9.8125 -55.5156 10.0156 -55.3281
L35.5 2.78125
Q35.9844 4 37.3125 4
Q38.0312 4 38.6719 3.35938
Q39.3125 2.73438 39.3125 2
Q39.3125 1.51562 39.2031 1.3125
L14.0156 -56
L39.2031 -113.281
Q39.3125 -113.484 39.3125 -114.016
Q39.3125 -114.75 38.6719 -115.375
Q38.0312 -116.016 37.3125 -116.016
Q36.0312 -116.016 35.5 -114.797" id="Cmex10-ad"/>
     </defs>
     <g transform="translate(15.7946875 70.08)rotate(-90.0)scale(0.08 -0.08)">
      <use transform="translate(0.0 94.0)" xlink:href="#Cmex10-ad"/>
      <use transform="translate(47.216796875 0.658854166667)" xlink:href="#Cmmi10-4f"/>
      <use transform="translate(123.4375 0.658854166667)" xlink:href="#Cmmi10-53"/>
      <use transform="translate(184.716796875 0.658854166667)" xlink:href="#Cmmi10-49"/>
      <use transform="translate(228.61328125 94.0)" xlink:href="#Cmex10-ae"/>
     </g>
    </g>
   </g>
   <g id="patch_3">
    <path d="
M43.2 109.44
L178.2 109.44" style="fill:none;stroke:#000000;stroke-width:0.5;"/>
   </g>
   <g id="patch_4">
    <path d="
M43.2 109.44
L43.2 8.64" style="fill:none;stroke:#000000;stroke-width:0.5;"/>
   </g>
   <g id="legend_1">
    <g id="LineCollection_5">
     <defs>
      <path d="
M54.6 -124.501
L54.6 -130.501" id="C4_0_80c15df232"/>
     </defs>
     <use style="fill:none;stroke:#000000;stroke-width:0.8;" x="0.0" xlink:href="#C4_0_80c15df232" y="144.0"/>
    </g>
    <g id="line2d_18">
     <g>
      <use style="stroke:#000000;stroke-width:0.8;" x="54.6" xlink:href="#m0f9b2572c5" y="19.4990625"/>
     </g>
    </g>
    <g id="line2d_19">
     <g>
      <use style="stroke:#000000;stroke-width:0.8;" x="54.6" xlink:href="#m0f9b2572c5" y="13.4990625"/>
     </g>
    </g>
    <g id="line2d_20">
     <path d="
M48.6 16.4991
L60.6 16.4991" style="fill:none;stroke:#000000;stroke-linecap:square;stroke-width:0.8;"/>
    </g>
    <g id="line2d_21">
     <g>
      <use style="stroke:#000000;stroke-linejoin:miter;stroke-width:0.5;" x="54.6" xlink:href="#m832fb497ba" y="16.4990625"/>
     </g>
    </g>
    <g id="text_8">
     <!-- E, K=500 -->
     <defs>
      <path d="
M9.8125 72.9062
L55.9062 72.9062
L55.9062 64.5938
L19.6719 64.5938
L19.6719 43.0156
L54.3906 43.0156
L54.3906 34.7188
L19.6719 34.7188
L19.6719 8.29688
L56.7812 8.29688
L56.7812 0
L9.8125 0
z
" id="DejaVuSans-45"/>
      <path id="DejaVuSans-20"/>
      <path d="
M10.5938 45.4062
L73.1875 45.4062
L73.1875 37.2031
L10.5938 37.2031
z

M10.5938 25.4844
L73.1875 25.4844
L73.1875 17.1875
L10.5938 17.1875
z
" id="DejaVuSans-3d"/>
      <path d="
M9.8125 72.9062
L19.6719 72.9062
L19.6719 42.0938
L52.3906 72.9062
L65.0938 72.9062
L28.9062 38.9219
L67.6719 0
L54.6875 0
L19.6719 35.1094
L19.6719 0
L9.8125 0
z
" id="DejaVuSans-4b"/>
      <path d="
M11.7188 12.4062
L22.0156 12.4062
L22.0156 4
L14.0156 -11.625
L7.71875 -11.625
L11.7188 4
z
" id="DejaVuSans-2c"/>
     </defs>
     <g transform="translate(65.4 18.5990625)scale(0.06 -0.06)">
      <use xlink:href="#DejaVuSans-45"/>
      <use x="63.18359375" xlink:href="#DejaVuSans-2c"/>
      <use x="94.970703125" xlink:href="#DejaVuSans-20"/>
      <use x="126.7578125" xlink:href="#DejaVuSans-4b"/>
      <use x="192.333984375" xlink:href="#DejaVuSans-3d"/>
      <use x="276.123046875" xlink:href="#DejaVuSans-35"/>
      <use x="339.74609375" xlink:href="#DejaVuSans-30"/>
      <use x="403.369140625" xlink:href="#DejaVuSans-30"/>
     </g>
    </g>
    <g id="LineCollection_6">
     <defs>
      <path d="
M54.6 -115.694
L54.6 -121.694" id="C5_0_7ade435087"/>
     </defs>
     <use style="fill:none;stroke:#ff0000;stroke-width:0.8;" x="0.0" xlink:href="#C5_0_7ade435087" y="144.0"/>
    </g>
    <g id="line2d_22">
     <g>
      <use style="fill:#ff0000;stroke:#ff0000;stroke-width:0.8;" x="54.6" xlink:href="#ma19bf96cc0" y="28.3059375"/>
     </g>
    </g>
    <g id="line2d_23">
     <g>
      <use style="fill:#ff0000;stroke:#ff0000;stroke-width:0.8;" x="54.6" xlink:href="#ma19bf96cc0" y="22.3059375"/>
     </g>
    </g>
    <g id="line2d_24">
     <path d="
M48.6 25.3059
L60.6 25.3059" style="fill:none;stroke:#ff0000;stroke-linecap:square;stroke-width:0.8;"/>
    </g>
    <g id="line2d_25">
     <g>
      <use style="fill:#ff0000;stroke:#ff0000;stroke-linejoin:miter;stroke-width:0.5;" x="54.6" xlink:href="#m68795ba406" y="25.3059375"/>
     </g>
    </g>
    <g id="text_9">
     <!-- I, K=500 -->
     <defs>
      <path d="
M9.8125 72.9062
L19.6719 72.9062
L19.6719 0
L9.8125 0
z
" id="DejaVuSans-49"/>
     </defs>
     <g transform="translate(65.4 27.4059375)scale(0.06 -0.06)">
      <use xlink:href="#DejaVuSans-49"/>
      <use x="29.4921875" xlink:href="#DejaVuSans-2c"/>
      <use x="61.279296875" xlink:href="#DejaVuSans-20"/>
      <use x="93.06640625" xlink:href="#DejaVuSans-4b"/>
      <use x="158.642578125" xlink:href="#DejaVuSans-3d"/>
      <use x="242.431640625" xlink:href="#DejaVuSans-35"/>
      <use x="306.0546875" xlink:href="#DejaVuSans-30"/>
      <use x="369.677734375" xlink:href="#DejaVuSans-30"/>
     </g>
    </g>
    <g id="LineCollection_7">
     <defs>
      <path d="
M54.6 -106.887
L54.6 -112.887" id="C6_0_49946ae598"/>
     </defs>
     <use style="fill:none;stroke:#000000;stroke-width:0.8;" x="0.0" xlink:href="#C6_0_49946ae598" y="144.0"/>
    </g>
    <g id="line2d_26">
     <g>
      <use style="stroke:#000000;stroke-width:0.8;" x="54.6" xlink:href="#m0f9b2572c5" y="37.1128125"/>
     </g>
    </g>
    <g id="line2d_27">
     <g>
      <use style="stroke:#000000;stroke-width:0.8;" x="54.6" xlink:href="#m0f9b2572c5" y="31.1128125"/>
     </g>
    </g>
    <g id="line2d_28">
     <path d="
M48.6 34.1128
L60.6 34.1128" style="fill:none;stroke:#000000;stroke-linecap:square;stroke-width:0.8;"/>
    </g>
    <g id="line2d_29">
     <g>
      <use style="stroke:#000000;stroke-width:0.5;" x="54.6" xlink:href="#m76eb5f4da3" y="34.1128125"/>
     </g>
    </g>
    <g id="text_10">
     <!-- E, K=1000 -->
     <defs>
      <path d="
M12.4062 8.29688
L28.5156 8.29688
L28.5156 63.9219
L10.9844 60.4062
L10.9844 69.3906
L28.4219 72.9062
L38.2812 72.9062
L38.2812 8.29688
L54.3906 8.29688
L54.3906 0
L12.4062 0
z
" id="DejaVuSans-31"/>
     </defs>
     <g transform="translate(65.4 36.2128125)scale(0.06 -0.06)">
      <use xlink:href="#DejaVuSans-45"/>
      <use x="63.18359375" xlink:href="#DejaVuSans-2c"/>
      <use x="94.970703125" xlink:href="#DejaVuSans-20"/>
      <use x="126.7578125" xlink:href="#DejaVuSans-4b"/>
      <use x="192.333984375" xlink:href="#DejaVuSans-3d"/>
      <use x="276.123046875" xlink:href="#DejaVuSans-31"/>
      <use x="339.74609375" xlink:href="#DejaVuSans-30"/>
      <use x="403.369140625" xlink:href="#DejaVuSans-30"/>
      <use x="466.9921875" xlink:href="#DejaVuSans-30"/>
     </g>
    </g>
    <g id="LineCollection_8">
     <defs>
      <path d="
M54.6 -98.0803
L54.6 -104.08" id="C7_0_1427d2205b"/>
     </defs>
     <use style="fill:none;stroke:#ff0000;stroke-width:0.8;" x="0.0" xlink:href="#C7_0_1427d2205b" y="144.0"/>
    </g>
    <g id="line2d_30">
     <g>
      <use style="fill:#ff0000;stroke:#ff0000;stroke-width:0.8;" x="54.6" xlink:href="#ma19bf96cc0" y="45.9196875"/>
     </g>
    </g>
    <g id="line2d_31">
     <g>
      <use style="fill:#ff0000;stroke:#ff0000;stroke-width:0.8;" x="54.6" xlink:href="#ma19bf96cc0" y="39.9196875"/>
     </g>
    </g>
    <g id="line2d_32">
     <path d="
M48.6 42.9197
L60.6 42.9197" style="fill:none;stroke:#ff0000;stroke-linecap:square;stroke-width:0.8;"/>
    </g>
    <g id="line2d_33">
     <g>
      <use style="fill:#ff0000;stroke:#ff0000;stroke-width:0.5;" x="54.6" xlink:href="#meb91f9ed46" y="42.9196875"/>
     </g>
    </g>
    <g id="text_11">
     <!-- I, K=1000 -->
     <g transform="translate(65.4 45.0196875)scale(0.06 -0.06)">
      <use xlink:href="#DejaVuSans-49"/>
      <use x="29.4921875" xlink:href="#DejaVuSans-2c"/>
      <use x="61.279296875" xlink:href="#DejaVuSans-20"/>
      <use x="93.06640625" xlink:href="#DejaVuSans-4b"/>
      <use x="158.642578125" xlink:href="#DejaVuSans-3d"/>
      <use x="242.431640625" xlink:href="#DejaVuSans-31"/>
      <use x="306.0546875" xlink:href="#DejaVuSans-30"/>
      <use x="369.677734375" xlink:href="#DejaVuSans-30"/>
      <use x="433.30078125" xlink:href="#DejaVuSans-30"/>
     </g>
    </g>
   </g>
  </g>
 </g>
 <defs>
  <clipPath id="pa8676777ac">
   <rect height="100.8" width="135.0" x="43.2" y="8.64"/>
  </clipPath>
 </defs>
</svg>
