<?xml version="1.0" encoding="utf-8" standalone="no"?>
<!DOCTYPE svg PUBLIC "-//W3C//DTD SVG 1.1//EN"
  "http://www.w3.org/Graphics/SVG/1.1/DTD/svg11.dtd">
<!-- Created with matplotlib (http://matplotlib.org/) -->
<svg height="144pt" version="1.1" viewBox="0 0 180 144" width="180pt" xmlns="http://www.w3.org/2000/svg" xmlns:xlink="http://www.w3.org/1999/xlink">
 <defs>
  <style type="text/css">
*{stroke-linecap:butt;stroke-linejoin:round;}
  </style>
 </defs>
 <g id="figure_1">
  <g id="patch_1">
   <path d="
M0 144
L180 144
L180 0
L0 0
z
" style="fill:#ffffff;"/>
  </g>
  <g id="axes_1">
   <g id="patch_2">
    <path d="
M46.8 109.44
L163.8 109.44
L163.8 15.84
L46.8 15.84
z
" style="fill:#ffffff;"/>
   </g>
   <g id="patch_3">
    <path clip-path="url(#pdb4acf8bd1)" d="
M47.028 109.44
L47.028 96.255
L51.3406 96.255
L51.3406 79.7456
L55.6531 79.7456
L55.6531 61.7712
L59.9657 61.7712
L59.9657 50.84
L64.2783 50.84
L64.2783 46.445
L68.5908 46.445
L68.5908 43.6277
L72.9034 43.6277
L72.9034 50.6146
L77.216 50.6146
L77.216 57.7143
L81.5285 57.7143
L81.5285 66.5606
L85.8411 66.5606
L85.8411 73.1531
L90.1537 73.1531
L90.1537 82.1685
L94.4662 82.1685
L94.4662 88.4229
L98.7788 88.4229
L98.7788 94.5646
L103.091 94.5646
L103.091 99.354
L107.404 99.354
L107.404 101.552
L111.716 101.552
L111.716 104.2
L116.029 104.2
L116.029 106.116
L120.342 106.116
L120.342 106.961
L124.654 106.961
L124.654 108.088
L128.967 108.088
L128.967 108.82
L133.279 108.82
L133.279 108.877
L137.592 108.877
L137.592 109.158
L141.904 109.158
L141.904 109.102
L146.217 109.102
L146.217 109.327
L150.53 109.327
L150.53 109.384
L154.842 109.384
L154.842 109.44
L159.155 109.44
L159.155 109.215
L163.467 109.215
L163.467 109.44" style="fill:none;stroke:#000000;"/>
   </g>
   <g id="patch_4">
    <path clip-path="url(#pdb4acf8bd1)" d="
M47.2689 109.44
L47.2689 99.6998
L51.5848 99.6998
L51.5848 82.5841
L55.9008 82.5841
L55.9008 70.1977
L60.2168 70.1977
L60.2168 58.6559
L64.5327 58.6559
L64.5327 54.9963
L68.8487 54.9963
L68.8487 49.8728
L73.1647 49.8728
L73.1647 53.5324
L77.4807 53.5324
L77.4807 57.755
L81.7966 57.755
L81.7966 63.4978
L86.1126 63.4978
L86.1126 71.7742
L90.4286 71.7742
L90.4286 76.8413
L94.7445 76.8413
L94.7445 82.753
L99.0605 82.753
L99.0605 89.7344
L103.376 89.7344
L103.376 94.9705
L107.692 94.9705
L107.692 97.2225
L112.008 97.2225
L112.008 100.544
L116.324 100.544
L116.324 103.528
L120.64 103.528
L120.64 105.611
L124.956 105.611
L124.956 107.075
L129.272 107.075
L129.272 107.92
L133.588 107.92
L133.588 108.258
L137.904 108.258
L137.904 108.877
L142.22 108.877
L142.22 108.99
L146.536 108.99
L146.536 109.102
L150.852 109.102
L150.852 109.158
L155.168 109.158
L155.168 109.44
L159.484 109.44
L159.484 109.327
L163.8 109.327
L163.8 109.44" style="fill:none;stroke:#00bfbf;"/>
   </g>
   <g id="patch_5">
    <path clip-path="url(#pdb4acf8bd1)" d="
M46.8 109.44
L46.8 67.3642
L50.3748 67.3642
L50.3748 26.24
L53.9497 26.24
L53.9497 15.84
L57.5245 15.84
L57.5245 22.2295
L61.0994 22.2295
L61.0994 28.4152
L64.6742 28.4152
L64.6742 43.7773
L68.2491 43.7773
L68.2491 59.2753
L71.8239 59.2753
L71.8239 67.84
L75.3988 67.84
L75.3988 76.6766
L78.9736 76.6766
L78.9736 81.7067
L82.5485 81.7067
L82.5485 87.6884
L86.1233 87.6884
L86.1233 95.7093
L89.6982 95.7093
L89.6982 98.2243
L93.273 98.2243
L93.273 101.079
L96.8479 101.079
L96.8479 104.002
L100.423 104.002
L100.423 104.546
L103.998 104.546
L103.998 107.197
L107.572 107.197
L107.572 106.653
L111.147 106.653
L111.147 108.081
L114.722 108.081
L114.722 108.488
L118.297 108.488
L118.297 108.896
L121.872 108.896
L121.872 109.032
L125.447 109.032
L125.447 109.236
L129.022 109.236
L129.022 109.236
L132.596 109.236
L132.596 109.168
L136.171 109.168
L136.171 109.304
L139.746 109.304
L139.746 109.304
L143.321 109.304
L143.321 109.44" style="fill:none;stroke:#008000;"/>
   </g>
   <g id="matplotlib.axis_1">
    <g id="xtick_1">
     <g id="line2d_1">
      <defs>
       <path d="
M0 0
L0 4" id="m741efc42ff" style="stroke:#000000;stroke-width:0.5;"/>
      </defs>
      <g>
       <use style="stroke:#000000;stroke-width:0.5;" x="46.8" xlink:href="#m741efc42ff" y="109.44"/>
      </g>
     </g>
     <g id="text_1">
      <!-- 0.0 -->
      <defs>
       <path d="
M31.7812 66.4062
Q24.1719 66.4062 20.3281 58.9062
Q16.5 51.4219 16.5 36.375
Q16.5 21.3906 20.3281 13.8906
Q24.1719 6.39062 31.7812 6.39062
Q39.4531 6.39062 43.2812 13.8906
Q47.125 21.3906 47.125 36.375
Q47.125 51.4219 43.2812 58.9062
Q39.4531 66.4062 31.7812 66.4062
M31.7812 74.2188
Q44.0469 74.2188 50.5156 64.5156
Q56.9844 54.8281 56.9844 36.375
Q56.9844 17.9688 50.5156 8.26562
Q44.0469 -1.42188 31.7812 -1.42188
Q19.5312 -1.42188 13.0625 8.26562
Q6.59375 17.9688 6.59375 36.375
Q6.59375 54.8281 13.0625 64.5156
Q19.5312 74.2188 31.7812 74.2188" id="DejaVuSans-30"/>
       <path d="
M10.6875 12.4062
L21 12.4062
L21 0
L10.6875 0
z
" id="DejaVuSans-2e"/>
      </defs>
      <g transform="translate(42.42609375 121.9990625)scale(0.06 -0.06)">
       <use xlink:href="#DejaVuSans-30"/>
       <use x="63.623046875" xlink:href="#DejaVuSans-2e"/>
       <use x="95.41015625" xlink:href="#DejaVuSans-30"/>
      </g>
     </g>
    </g>
    <g id="xtick_2">
     <g id="line2d_2">
      <g>
       <use style="stroke:#000000;stroke-width:0.5;" x="105.3" xlink:href="#m741efc42ff" y="109.44"/>
      </g>
     </g>
     <g id="text_2">
      <!-- 0.4 -->
      <defs>
       <path d="
M37.7969 64.3125
L12.8906 25.3906
L37.7969 25.3906
z

M35.2031 72.9062
L47.6094 72.9062
L47.6094 25.3906
L58.0156 25.3906
L58.0156 17.1875
L47.6094 17.1875
L47.6094 0
L37.7969 0
L37.7969 17.1875
L4.89062 17.1875
L4.89062 26.7031
z
" id="DejaVuSans-34"/>
      </defs>
      <g transform="translate(100.89515625 121.9990625)scale(0.06 -0.06)">
       <use xlink:href="#DejaVuSans-30"/>
       <use x="63.623046875" xlink:href="#DejaVuSans-2e"/>
       <use x="95.41015625" xlink:href="#DejaVuSans-34"/>
      </g>
     </g>
    </g>
    <g id="xtick_3">
     <g id="line2d_3">
      <g>
       <use style="stroke:#000000;stroke-width:0.5;" x="163.8" xlink:href="#m741efc42ff" y="109.44"/>
      </g>
     </g>
     <g id="text_3">
      <!-- 0.7 -->
      <defs>
       <path d="
M8.20312 72.9062
L55.0781 72.9062
L55.0781 68.7031
L28.6094 0
L18.3125 0
L43.2188 64.5938
L8.20312 64.5938
z
" id="DejaVuSans-37"/>
      </defs>
      <g transform="translate(159.48328125 121.9990625)scale(0.06 -0.06)">
       <use xlink:href="#DejaVuSans-30"/>
       <use x="63.623046875" xlink:href="#DejaVuSans-2e"/>
       <use x="95.41015625" xlink:href="#DejaVuSans-37"/>
      </g>
     </g>
    </g>
   </g>
   <g id="matplotlib.axis_2">
    <g id="ytick_1">
     <g id="line2d_4">
      <defs>
       <path d="
M0 0
L-4 0" id="mcb0005524f" style="stroke:#000000;stroke-width:0.5;"/>
      </defs>
      <g>
       <use style="stroke:#000000;stroke-width:0.5;" x="46.8" xlink:href="#mcb0005524f" y="109.44"/>
      </g>
     </g>
     <g id="text_4">
      <!-- 0.0 -->
      <g transform="translate(30.0521875 111.095625)scale(0.06 -0.06)">
       <use xlink:href="#DejaVuSans-30"/>
       <use x="63.623046875" xlink:href="#DejaVuSans-2e"/>
       <use x="95.41015625" xlink:href="#DejaVuSans-30"/>
      </g>
     </g>
    </g>
    <g id="ytick_2">
     <g id="line2d_5">
      <g>
       <use style="stroke:#000000;stroke-width:0.5;" x="46.8" xlink:href="#mcb0005524f" y="62.64"/>
      </g>
     </g>
     <g id="text_5">
      <!-- 3.2 -->
      <defs>
       <path d="
M40.5781 39.3125
Q47.6562 37.7969 51.625 33
Q55.6094 28.2188 55.6094 21.1875
Q55.6094 10.4062 48.1875 4.48438
Q40.7656 -1.42188 27.0938 -1.42188
Q22.5156 -1.42188 17.6562 -0.515625
Q12.7969 0.390625 7.625 2.20312
L7.625 11.7188
Q11.7188 9.32812 16.5938 8.10938
Q21.4844 6.89062 26.8125 6.89062
Q36.0781 6.89062 40.9375 10.5469
Q45.7969 14.2031 45.7969 21.1875
Q45.7969 27.6406 41.2812 31.2656
Q36.7656 34.9062 28.7188 34.9062
L20.2188 34.9062
L20.2188 43.0156
L29.1094 43.0156
Q36.375 43.0156 40.2344 45.9219
Q44.0938 48.8281 44.0938 54.2969
Q44.0938 59.9062 40.1094 62.9062
Q36.1406 65.9219 28.7188 65.9219
Q24.6562 65.9219 20.0156 65.0312
Q15.375 64.1562 9.8125 62.3125
L9.8125 71.0938
Q15.4375 72.6562 20.3438 73.4375
Q25.25 74.2188 29.5938 74.2188
Q40.8281 74.2188 47.3594 69.1094
Q53.9062 64.0156 53.9062 55.3281
Q53.9062 49.2656 50.4375 45.0938
Q46.9688 40.9219 40.5781 39.3125" id="DejaVuSans-33"/>
       <path d="
M19.1875 8.29688
L53.6094 8.29688
L53.6094 0
L7.32812 0
L7.32812 8.29688
Q12.9375 14.1094 22.625 23.8906
Q32.3281 33.6875 34.8125 36.5312
Q39.5469 41.8438 41.4219 45.5312
Q43.3125 49.2188 43.3125 52.7812
Q43.3125 58.5938 39.2344 62.25
Q35.1562 65.9219 28.6094 65.9219
Q23.9688 65.9219 18.8125 64.3125
Q13.6719 62.7031 7.8125 59.4219
L7.8125 69.3906
Q13.7656 71.7812 18.9375 73
Q24.125 74.2188 28.4219 74.2188
Q39.75 74.2188 46.4844 68.5469
Q53.2188 62.8906 53.2188 53.4219
Q53.2188 48.9219 51.5312 44.8906
Q49.8594 40.875 45.4062 35.4062
Q44.1875 33.9844 37.6406 27.2188
Q31.1094 20.4531 19.1875 8.29688" id="DejaVuSans-32"/>
      </defs>
      <g transform="translate(30.3165625 64.295625)scale(0.06 -0.06)">
       <use xlink:href="#DejaVuSans-33"/>
       <use x="63.623046875" xlink:href="#DejaVuSans-2e"/>
       <use x="95.41015625" xlink:href="#DejaVuSans-32"/>
      </g>
     </g>
    </g>
    <g id="ytick_3">
     <g id="line2d_6">
      <g>
       <use style="stroke:#000000;stroke-width:0.5;" x="46.8" xlink:href="#mcb0005524f" y="15.84"/>
      </g>
     </g>
     <g id="text_6">
      <!-- 6.4 -->
      <defs>
       <path d="
M33.0156 40.375
Q26.375 40.375 22.4844 35.8281
Q18.6094 31.2969 18.6094 23.3906
Q18.6094 15.5312 22.4844 10.9531
Q26.375 6.39062 33.0156 6.39062
Q39.6562 6.39062 43.5312 10.9531
Q47.4062 15.5312 47.4062 23.3906
Q47.4062 31.2969 43.5312 35.8281
Q39.6562 40.375 33.0156 40.375
M52.5938 71.2969
L52.5938 62.3125
Q48.875 64.0625 45.0938 64.9844
Q41.3125 65.9219 37.5938 65.9219
Q27.8281 65.9219 22.6719 59.3281
Q17.5312 52.7344 16.7969 39.4062
Q19.6719 43.6562 24.0156 45.9219
Q28.375 48.1875 33.5938 48.1875
Q44.5781 48.1875 50.9531 41.5156
Q57.3281 34.8594 57.3281 23.3906
Q57.3281 12.1562 50.6875 5.35938
Q44.0469 -1.42188 33.0156 -1.42188
Q20.3594 -1.42188 13.6719 8.26562
Q6.98438 17.9688 6.98438 36.375
Q6.98438 53.6562 15.1875 63.9375
Q23.3906 74.2188 37.2031 74.2188
Q40.9219 74.2188 44.7031 73.4844
Q48.4844 72.75 52.5938 71.2969" id="DejaVuSans-36"/>
      </defs>
      <g transform="translate(30.01375 17.495625)scale(0.06 -0.06)">
       <use xlink:href="#DejaVuSans-36"/>
       <use x="63.623046875" xlink:href="#DejaVuSans-2e"/>
       <use x="95.41015625" xlink:href="#DejaVuSans-34"/>
      </g>
     </g>
    </g>
   </g>
   <g id="patch_6">
    <path d="
M46.8 109.44
L163.8 109.44" style="fill:none;stroke:#000000;stroke-width:0.5;"/>
   </g>
   <g id="patch_7">
    <path d="
M46.8 109.44
L46.8 15.84" style="fill:none;stroke:#000000;stroke-width:0.5;"/>
   </g>
   <g id="patch_8">
    <path d="
M76.6694 89.4547
Q76.6694 95.4476 76.6694 101.441
L78.4694 101.441
Q76.9694 104.442 75.4694 107.444
Q73.9694 104.442 72.4694 101.441
L74.2694 101.441
Q74.2694 95.4476 74.2694 89.4547
L76.6694 89.4547
z
" style="stroke:#000000;stroke-linecap:round;"/>
   </g>
   <g id="patch_9">
    <path d="
M79.9015 89.4547
Q79.9015 95.4476 79.9015 101.441
L81.7015 101.441
Q80.2015 104.442 78.7015 107.444
Q77.2015 104.442 75.7015 101.441
L77.5015 101.441
Q77.5015 95.4476 77.5015 89.4547
L79.9015 89.4547
z
" style="fill:#00bfbf;stroke:#00bfbf;stroke-linecap:round;"/>
   </g>
   <g id="patch_10">
    <path d="
M66.7041 89.4547
Q66.7041 95.4476 66.7041 101.441
L68.5041 101.441
Q67.0041 104.442 65.5041 107.444
Q64.0041 104.442 62.5041 101.441
L64.3041 101.441
Q64.3041 95.4476 64.3041 89.4547
L66.7041 89.4547
z
" style="fill:#008000;stroke:#008000;stroke-linecap:round;"/>
   </g>
   <g id="text_7">
    <!-- $I, p = 0, \, \gamma = 0 $ -->
    <defs>
     <path d="
M25 -2.20312
Q12.75 -2.20312 8.32812 7.875
Q3.90625 17.9688 3.90625 31.8906
Q3.90625 40.5781 5.48438 48.2344
Q7.07812 55.9062 11.7812 61.25
Q16.5 66.6094 25 66.6094
Q31.5938 66.6094 35.7812 63.375
Q39.9844 60.1562 42.1875 55.0469
Q44.3906 49.9531 45.1875 44.1094
Q46 38.2812 46 31.8906
Q46 23.2969 44.4062 15.7969
Q42.8281 8.29688 38.1875 3.04688
Q33.5469 -2.20312 25 -2.20312
M25 0.390625
Q30.5625 0.390625 33.2969 6.09375
Q36.0312 11.8125 36.6719 18.75
Q37.3125 25.6875 37.3125 33.5
Q37.3125 41.0156 36.6719 47.3594
Q36.0312 53.7188 33.3125 58.8594
Q30.6094 64.0156 25 64.0156
Q19.3438 64.0156 16.6094 58.8281
Q13.875 53.6562 13.2344 47.3281
Q12.5938 41.0156 12.5938 33.5
Q12.5938 27.9375 12.8594 23
Q13.1406 18.0625 14.3125 12.8125
Q15.4844 7.5625 18.0938 3.96875
Q20.7031 0.390625 25 0.390625" id="Cmr10-30"/>
     <path d="
M-2.48438 -19.3906
Q-3.42188 -19.3906 -3.42188 -18.1094
Q-3.07812 -15.9219 -2.09375 -15.9219
Q1.03125 -15.9219 2.26562 -15.3594
Q3.51562 -14.7969 4.20312 -12.5
L15.4844 32.5156
Q16.2188 34.375 16.2188 37.3125
Q16.2188 41.6094 13.2812 41.6094
Q10.1562 41.6094 8.64062 37.8594
Q7.125 34.125 5.71875 28.4219
Q5.71875 27.7812 4.89062 27.7812
L3.71875 27.7812
Q3.46875 27.7812 3.17188 28.1406
Q2.875 28.5156 2.875 28.8125
Q3.95312 33.1562 4.95312 36.1719
Q5.95312 39.2031 8.07812 41.6875
Q10.2031 44.1875 13.375 44.1875
Q16.7969 44.1875 19.375 42.25
Q21.9688 40.3281 22.7031 37.0156
Q25.4375 40.1875 28.75 42.1875
Q32.0781 44.1875 35.5938 44.1875
Q39.7969 44.1875 42.8906 41.9375
Q46 39.7031 47.5625 36.0625
Q49.125 32.4219 49.125 28.2188
Q49.125 21.7812 45.8281 14.8906
Q42.5312 8.01562 36.8906 3.4375
Q31.25 -1.125 24.8125 -1.125
Q21.875 -1.125 19.5 0.53125
Q17.1406 2.20312 15.8281 4.89062
L11.2812 -12.8906
Q11.0312 -14.3594 10.9844 -14.5938
Q10.9844 -15.9219 17.5781 -15.9219
Q18.6094 -15.9219 18.6094 -17.1875
Q18.2656 -18.5 18.0469 -18.9375
Q17.8281 -19.3906 16.8906 -19.3906
z

M24.9062 1.51562
Q28.375 1.51562 31.3438 4.375
Q34.3281 7.23438 36.1875 10.7969
Q37.5469 13.4844 38.7344 17.3594
Q39.9375 21.2344 40.8125 25.625
Q41.7031 30.0312 41.7031 32.625
Q41.7031 34.9062 41.0938 36.9062
Q40.4844 38.9219 39.0938 40.2656
Q37.7031 41.6094 35.4062 41.6094
Q31.7344 41.6094 28.4844 38.9844
Q25.25 36.375 22.6094 32.5156
L22.6094 32.1719
L17.0938 10.1094
Q17.7812 6.54688 19.7344 4.03125
Q21.6875 1.51562 24.9062 1.51562" id="Cmmi10-70"/>
     <path d="
M7.51562 13.2812
Q6.6875 13.2812 6.14062 13.9062
Q5.60938 14.5469 5.60938 15.2812
Q5.60938 16.1094 6.14062 16.6875
Q6.6875 17.2812 7.51562 17.2812
L70.3125 17.2812
Q71.0469 17.2812 71.5781 16.6875
Q72.125 16.1094 72.125 15.2812
Q72.125 14.5469 71.5781 13.9062
Q71.0469 13.2812 70.3125 13.2812
z

M7.51562 32.7188
Q6.6875 32.7188 6.14062 33.2969
Q5.60938 33.8906 5.60938 34.7188
Q5.60938 35.4531 6.14062 36.0781
Q6.6875 36.7188 7.51562 36.7188
L70.3125 36.7188
Q71.0469 36.7188 71.5781 36.0781
Q72.125 35.4531 72.125 34.7188
Q72.125 33.8906 71.5781 33.2969
Q71.0469 32.7188 70.3125 32.7188
z
" id="Cmr10-3d"/>
     <path d="
M9.90625 -18.0156
Q9.90625 -17.5781 10.2969 -17.1875
Q13.9219 -13.7188 15.9219 -9.17188
Q17.9219 -4.64062 17.9219 0.390625
L17.9219 1.60938
Q16.3125 0 13.9219 0
Q11.625 0 10.0156 1.60938
Q8.40625 3.21875 8.40625 5.51562
Q8.40625 7.85938 10.0156 9.42188
Q11.625 10.9844 13.9219 10.9844
Q17.4844 10.9844 19 7.6875
Q20.5156 4.39062 20.5156 0.390625
Q20.5156 -5.17188 18.2812 -10.1719
Q16.0625 -15.1875 12.0156 -19.1875
Q11.625 -19.3906 11.375 -19.3906
Q10.8906 -19.3906 10.3906 -18.9375
Q9.90625 -18.5 9.90625 -18.0156" id="Cmmi10-3b"/>
     <path d="
M29.5 -19.5781
Q29.5 -17.3281 30.5 -13.0312
Q31.5 -8.73438 32.9375 -3.875
Q34.375 0.984375 35.4062 4.10938
Q35.7969 9.07812 35.7969 11.625
Q35.7969 18.0625 34.5156 23.6094
Q33.25 29.1562 29.7344 32.8906
Q26.2188 36.625 19.9219 36.625
Q16.6094 36.625 13.3125 35.2031
Q10.0156 33.7969 7.64062 31.25
Q5.28125 28.7188 4.39062 25.4844
Q4.20312 24.9062 3.60938 24.9062
L2.39062 24.9062
Q1.60938 24.9062 1.60938 25.7812
L1.60938 26.125
Q2.73438 30.6094 5.59375 34.7812
Q8.45312 38.9688 12.5781 41.5781
Q16.7031 44.1875 21.2969 44.1875
Q25.9844 44.1875 29.3906 41.0156
Q32.8125 37.8438 34.8594 32.9531
Q36.9219 28.0781 37.8125 23.0938
Q38.7188 18.1094 38.7188 13.7188
Q43.75 27.3906 50 39.5938
L51.5156 42.8281
Q51.8125 43.1094 52.2031 43.1094
L53.4219 43.1094
Q54.2031 43.1094 54.2031 42.1875
Q54.2031 42 54 41.6094
L52.4844 38.4844
Q48.1406 29.8281 44.5 20.9375
Q40.875 12.0625 38.2812 3.8125
Q37.8906 0.4375 36.7812 -5.42188
Q35.6875 -11.2812 34.125 -16.3281
Q32.5625 -21.3906 31 -21.5781
Q29.5 -21.5781 29.5 -19.5781" id="Cmmi10-b0"/>
     <path d="
M4.20312 0
Q3.21875 0 3.21875 1.3125
Q3.60938 3.51562 4.5 3.51562
Q10.4062 3.51562 12.5 3.90625
Q14.7969 4.4375 15.375 6.89062
L29.1094 61.8125
Q29.2969 62.7969 29.2969 63.0938
Q29.2969 63.7188 28.9688 63.9844
Q28.6562 64.2656 27.9844 64.4062
Q25.9844 64.7969 20.4062 64.7969
Q19.3906 64.7969 19.3906 66.1094
Q19.7344 67.3906 19.9219 67.8438
Q20.125 68.3125 21.0938 68.3125
L49.0312 68.3125
Q50 68.3125 50 67
Q49.9531 66.75 49.7969 66.1562
Q49.6562 65.5781 49.4062 65.1875
Q49.1719 64.7969 48.6875 64.7969
Q42.8281 64.7969 40.5781 64.4062
Q38.375 63.875 37.7969 61.375
L24.125 6.5
Q23.875 5.28125 23.875 5.17188
Q23.875 4.9375 23.9531 4.71875
Q24.0312 4.5 24.25 4.32812
Q24.4688 4.15625 24.6875 4.07812
Q24.9062 4 25.2031 3.90625
Q27.0938 3.51562 32.8125 3.51562
Q33.7969 3.51562 33.7969 2.20312
Q33.4531 0.78125 33.25 0.390625
Q33.0625 0 32.0781 0
z
" id="Cmmi10-49"/>
    </defs>
    <g transform="translate(78.1 10.84)scale(0.1 -0.1)">
     <use transform="translate(0.0 0.6875)" xlink:href="#Cmmi10-49"/>
     <use transform="translate(43.896484375 0.6875)" xlink:href="#Cmmi10-3b"/>
     <use transform="translate(73.564453125 0.6875)" xlink:href="#Cmmi10-70"/>
     <use transform="translate(141.416015625 0.6875)" xlink:href="#Cmr10-3d"/>
     <use transform="translate(225.474609375 0.6875)" xlink:href="#Cmr10-30"/>
     <use transform="translate(275.474609375 0.6875)" xlink:href="#Cmmi10-3b"/>
     <use transform="translate(340.259765625 0.6875)" xlink:href="#Cmmi10-b0"/>
     <use transform="translate(409.52734375 0.6875)" xlink:href="#Cmr10-3d"/>
     <use transform="translate(493.5859375 0.6875)" xlink:href="#Cmr10-30"/>
    </g>
   </g>
   <g id="legend_1">
    <g id="patch_11">
     <path d="
M71.16 29.1188
L87.16 29.1188
L87.16 23.5188
L71.16 23.5188
z
" style="fill:none;stroke:#000000;"/>
    </g>
    <g id="text_8">
     <!-- $\kappa = 0$ -->
     <defs>
      <path d="
M5.32812 1.70312
Q5.32812 2.29688 5.42188 2.59375
L14.9844 41.0156
Q15.375 42.4375 16.5469 43.3125
Q17.7188 44.1875 19.1875 44.1875
Q20.4531 44.1875 21.3281 43.4219
Q22.2188 42.6719 22.2188 41.4062
Q22.2188 41.1094 22.1875 40.9375
Q22.1719 40.7656 22.125 40.5781
L18.5 26.125
Q22.5156 27.4375 29.1562 32.9844
Q35.7969 38.5312 39.1875 40.8125
Q42.5781 43.1094 47.5156 43.1094
Q49.125 43.1094 50.2188 42.1094
Q51.3125 41.1094 51.3125 39.4062
Q51.3125 37.0625 49.625 35.4219
Q47.9531 33.7969 45.6094 33.7969
Q44 33.7969 42.8906 34.8438
Q41.7969 35.8906 41.7969 37.5
Q41.7969 38.625 42.1875 39.4062
Q39.7969 38.4219 37.2812 36.6562
Q34.7656 34.9062 32.7188 33.125
Q30.6719 31.3438 27.7812 28.9531
Q24.9062 26.5625 22.6094 25.2969
Q26.7031 25.2969 31 24.4062
Q35.2969 23.5312 38.4531 21.1875
Q41.6094 18.8438 41.6094 14.7969
Q41.6094 13.1875 41.2188 12.0156
Q40.2812 8.01562 40.2812 6
Q40.2812 1.51562 43.4062 1.51562
Q46.9688 1.51562 48.875 5.46875
Q50.7812 9.42188 52 14.7031
Q52.2031 15.2812 52.7812 15.2812
L54 15.2812
Q54.3906 15.2812 54.6406 15.0156
Q54.8906 14.75 54.8906 14.4062
Q54.8906 14.3125 54.7812 14.1094
Q51.125 -1.125 43.2188 -1.125
Q40.375 -1.125 38.2031 0.1875
Q36.0312 1.51562 34.8594 3.78125
Q33.6875 6.0625 33.6875 8.89062
Q33.6875 10.6875 34.0781 12.2031
Q34.4219 13.5781 34.4219 14.5
Q34.4219 17.7188 31.5625 19.5781
Q28.7188 21.4375 24.8281 22.1094
Q20.9531 22.7969 17.5781 22.7969
L12.5 2.20312
Q12.1562 0.828125 10.9531 -0.140625
Q9.76562 -1.125 8.29688 -1.125
Q7.07812 -1.125 6.20312 -0.34375
Q5.32812 0.4375 5.32812 1.70312" id="Cmmi10-b7"/>
     </defs>
     <g transform="translate(93.56 29.11875)scale(0.08 -0.08)">
      <use transform="translate(0.0 0.390625)" xlink:href="#Cmmi10-b7"/>
      <use transform="translate(75.17578125 0.390625)" xlink:href="#Cmr10-3d"/>
      <use transform="translate(159.234375 0.390625)" xlink:href="#Cmr10-30"/>
     </g>
    </g>
    <g id="patch_12">
     <path d="
M71.16 40.8613
L87.16 40.8613
L87.16 35.2613
L71.16 35.2613
z
" style="fill:none;stroke:#00bfbf;"/>
    </g>
    <g id="text_9">
     <!-- $\kappa = 8, 10 J_{EE}$ -->
     <defs>
      <path d="
M9.28125 0
L9.28125 3.51562
Q21.7812 3.51562 21.7812 6.6875
L21.7812 59.1875
Q16.6094 56.6875 8.6875 56.6875
L8.6875 60.2031
Q20.9531 60.2031 27.2031 66.6094
L28.6094 66.6094
Q28.9531 66.6094 29.2656 66.3281
Q29.5938 66.0625 29.5938 65.7188
L29.5938 6.6875
Q29.5938 3.51562 42.0938 3.51562
L42.0938 0
z
" id="Cmr10-31"/>
      <path d="
M4.20312 15.1875
Q4.20312 21.1875 8.15625 25.7969
Q12.1094 30.4219 18.3125 33.5
L14.5938 35.8906
Q11.1875 38.1406 9.03125 41.875
Q6.89062 45.6094 6.89062 49.7031
Q6.89062 54.5 9.40625 58.3438
Q11.9219 62.2031 16.0938 64.4062
Q20.2656 66.6094 25 66.6094
Q29.4375 66.6094 33.5625 64.7969
Q37.7031 62.9844 40.3594 59.6094
Q43.0156 56.25 43.0156 51.6094
Q43.0156 48.25 41.4219 45.3594
Q39.8438 42.4844 37.0781 40.1875
Q34.3281 37.8906 31.2031 36.2812
L36.9219 32.625
Q40.875 30.0312 43.2812 25.8281
Q45.7031 21.625 45.7031 17
Q45.7031 11.5781 42.7969 7.125
Q39.8906 2.6875 35.1094 0.234375
Q30.3281 -2.20312 25 -2.20312
Q19.8281 -2.20312 15.0156 -0.09375
Q10.2031 2 7.20312 5.98438
Q4.20312 9.96875 4.20312 15.1875
M9.625 15.1875
Q9.625 11.2344 11.7969 7.95312
Q13.9688 4.6875 17.5312 2.82812
Q21.0938 0.984375 25 0.984375
Q30.8125 0.984375 35.5469 4.375
Q40.2812 7.76562 40.2812 13.375
Q40.2812 15.2812 39.5156 17.1562
Q38.7656 19.0469 37.4219 20.5781
Q36.0781 22.125 34.4219 23.0938
L21 31.7812
Q17.875 30.125 15.25 27.5781
Q12.6406 25.0469 11.125 21.875
Q9.625 18.7031 9.625 15.1875
M16.5 45.7031
L28.6094 37.8906
Q32.8125 40.3281 35.5 43.7969
Q38.1875 47.2656 38.1875 51.6094
Q38.1875 54.9844 36.2969 57.7812
Q34.4219 60.5938 31.3906 62.1562
Q28.375 63.7188 24.9062 63.7188
Q21.875 63.7188 18.7969 62.5469
Q15.7188 61.375 13.7188 59.0469
Q11.7188 56.7344 11.7188 53.6094
Q11.7188 48.9219 16.5 45.7031" id="Cmr10-38"/>
      <path d="
M4.6875 0
Q3.71875 0 3.71875 1.3125
Q3.76562 1.5625 3.90625 2.17188
Q4.04688 2.78125 4.3125 3.14062
Q4.59375 3.51562 4.98438 3.51562
Q11.0781 3.51562 13.4844 4.20312
Q14.7969 4.64062 15.375 6.89062
L29.1094 61.8125
Q29.2969 62.7969 29.2969 63.1875
Q29.2969 64.2656 28.0781 64.4062
Q26.2188 64.7969 20.9062 64.7969
Q19.9219 64.7969 19.9219 66.1094
Q19.9688 66.3594 20.1094 66.9688
Q20.2656 67.5781 20.5312 67.9375
Q20.7969 68.3125 21.1875 68.3125
L75.3906 68.3125
Q76.4219 68.3125 76.4219 67
L74.0312 46.2969
Q74.0312 46.0469 73.6562 45.7188
Q73.2969 45.4062 73 45.4062
L72.125 45.4062
Q71.0938 45.4062 71.0938 46.6875
Q71.6875 51.5625 71.6875 53.9062
Q71.6875 57.9062 70.3125 60.125
Q68.9531 62.3594 66.6719 63.3281
Q64.4062 64.3125 61.6406 64.5469
Q58.8906 64.7969 54.3906 64.7969
L43.0156 64.7969
Q40.2812 64.7969 39.4062 64.3281
Q38.5312 63.875 37.7969 61.375
L31.7812 37.2031
L39.5938 37.2031
Q44.6719 37.2031 47.2656 37.9062
Q49.8594 38.625 51.3594 40.8594
Q52.875 43.1094 54.1094 48
Q54.2031 48.3438 54.4688 48.6094
Q54.7344 48.875 55.0781 48.875
L56 48.875
Q56.9844 48.875 56.9844 47.6094
L50.7812 22.9062
Q50.5938 22.0156 49.8125 22.0156
L48.875 22.0156
Q47.9062 22.0156 47.9062 23.2969
Q48.875 27.2969 48.875 29.2031
Q48.875 32.125 46.2344 32.9062
Q43.6094 33.6875 39.2031 33.6875
L30.9062 33.6875
L24.125 6.5
Q23.6875 5.28125 23.6875 4.29688
Q23.6875 3.51562 27.0938 3.51562
L39.2031 3.51562
Q46.4375 3.51562 50.9219 4.64062
Q55.4219 5.76562 58.375 8.21875
Q61.3281 10.6875 63.4688 14.5
Q65.625 18.3125 68.7031 25.5938
Q68.8906 26.2188 69.5781 26.2188
L70.5156 26.2188
Q70.9062 26.2188 71.1875 25.875
Q71.4844 25.5312 71.4844 25.0938
Q71.4844 24.9062 71.3906 24.7031
L61.0781 0.59375
Q60.8906 0 60.2969 0
z
" id="Cmmi10-45"/>
      <path d="
M10.8906 6
Q11.8594 3.21875 14.5 1.79688
Q17.1406 0.390625 20.2188 0.390625
Q23.3438 0.390625 26.25 2.5625
Q29.1562 4.73438 31.1719 8
Q33.2031 11.2812 33.9844 14.5
L45.7969 61.8125
Q45.9062 62.2031 45.9219 62.3906
Q45.9531 62.5938 46 62.7969
Q46 63.875 45.2188 64.1094
Q42.5781 64.7969 34.5156 64.7969
Q33.5 64.7969 33.5 66.1094
Q33.6875 66.8906 33.8125 67.3281
Q33.9375 67.7812 34.25 68.0469
Q34.5781 68.3125 35.2031 68.3125
L62.3125 68.3125
Q63.2812 68.3125 63.2812 67
Q62.8906 64.7969 62.0156 64.7969
Q58.5 64.7969 56.6875 64.25
Q54.8906 63.7188 54.2031 61.375
L42.3906 14.1094
Q41.2656 9.46875 37.8125 5.73438
Q34.375 2 29.6406 -0.09375
Q24.9062 -2.20312 20.125 -2.20312
Q14.8438 -2.20312 10.8594 0.71875
Q6.89062 3.65625 6.89062 8.6875
Q6.89062 12.0156 8.6875 14.4062
Q10.5 16.7969 13.8125 16.7969
Q15.7188 16.7969 17.0156 15.625
Q18.3125 14.4531 18.3125 12.5938
Q18.3125 9.90625 16.3125 7.90625
Q14.3125 5.90625 11.625 5.90625
Q11.0781 5.90625 10.8906 6" id="Cmmi10-4a"/>
     </defs>
     <g transform="translate(93.56 40.86125)scale(0.08 -0.08)">
      <use transform="translate(0.0 0.6875)" xlink:href="#Cmmi10-b7"/>
      <use transform="translate(75.17578125 0.6875)" xlink:href="#Cmr10-3d"/>
      <use transform="translate(159.234375 0.6875)" xlink:href="#Cmr10-38"/>
      <use transform="translate(209.234375 0.6875)" xlink:href="#Cmmi10-3b"/>
      <use transform="translate(238.90234375 0.6875)" xlink:href="#Cmr10-31"/>
      <use transform="translate(288.90234375 0.6875)" xlink:href="#Cmr10-30"/>
      <use transform="translate(338.90234375 0.6875)" xlink:href="#Cmmi10-4a"/>
      <use transform="translate(394.322265625 -24.821875)scale(0.7)" xlink:href="#Cmmi10-45"/>
      <use transform="translate(445.967773438 -24.821875)scale(0.7)" xlink:href="#Cmmi10-45"/>
     </g>
    </g>
    <g id="patch_13">
     <path d="
M71.16 53.02
L87.16 53.02
L87.16 47.42
L71.16 47.42
z
" style="fill:none;stroke:#008000;"/>
    </g>
    <g id="text_10">
     <!-- $\kappa = 8, 10 J_{EE}, 2.4m_I$ -->
     <defs>
      <path d="
M4.98438 0
L4.98438 2.6875
Q4.98438 2.9375 5.17188 3.21875
L20.7031 20.4062
Q24.2188 24.2188 26.4062 26.7969
Q28.6094 29.3906 30.75 32.7656
Q32.9062 36.1406 34.1562 39.625
Q35.4062 43.1094 35.4062 47.0156
Q35.4062 51.125 33.8906 54.8594
Q32.375 58.5938 29.375 60.8438
Q26.375 63.0938 22.125 63.0938
Q17.7812 63.0938 14.3125 60.4688
Q10.8438 57.8594 9.42188 53.7188
Q9.8125 53.8125 10.5 53.8125
Q12.75 53.8125 14.3281 52.2969
Q15.9219 50.7812 15.9219 48.3906
Q15.9219 46.0938 14.3281 44.5
Q12.75 42.9219 10.5 42.9219
Q8.15625 42.9219 6.5625 44.5469
Q4.98438 46.1875 4.98438 48.3906
Q4.98438 52.1562 6.39062 55.4375
Q7.8125 58.7344 10.4688 61.2969
Q13.1406 63.875 16.4844 65.2344
Q19.8281 66.6094 23.5781 66.6094
Q29.2969 66.6094 34.2188 64.1875
Q39.1562 61.7656 42.0312 57.3438
Q44.9219 52.9375 44.9219 47.0156
Q44.9219 42.6719 43.0156 38.7656
Q41.1094 34.8594 38.125 31.6562
Q35.1562 28.4688 30.5156 24.4062
Q25.875 20.3594 24.4219 19
L13.0938 8.10938
L22.7031 8.10938
Q29.7812 8.10938 34.5469 8.21875
Q39.3125 8.34375 39.5938 8.59375
Q40.7656 9.85938 42 17.8281
L44.9219 17.8281
L42.0938 0
z
" id="Cmr10-32"/>
      <path d="
M2.78125 16.5
L2.78125 20.0156
L33.6875 66.1094
Q34.0312 66.6094 34.7188 66.6094
L36.1875 66.6094
Q37.3125 66.6094 37.3125 65.4844
L37.3125 20.0156
L47.125 20.0156
L47.125 16.5
L37.3125 16.5
L37.3125 6.6875
Q37.3125 4.64062 40.2344 4.07812
Q43.1719 3.51562 47.0156 3.51562
L47.0156 0
L19.4844 0
L19.4844 3.51562
Q23.3438 3.51562 26.2656 4.07812
Q29.2031 4.64062 29.2031 6.6875
L29.2031 16.5
z

M6.10938 20.0156
L29.7812 20.0156
L29.7812 55.4219
z
" id="Cmr10-34"/>
      <path d="
M7.71875 1.70312
Q7.71875 2.29688 7.8125 2.59375
L15.2812 32.4219
Q16.0156 35.2031 16.0156 37.3125
Q16.0156 41.6094 13.0938 41.6094
Q9.96875 41.6094 8.45312 37.8594
Q6.9375 34.125 5.51562 28.4219
Q5.51562 28.125 5.21875 27.9531
Q4.9375 27.7812 4.6875 27.7812
L3.51562 27.7812
Q3.17188 27.7812 2.92188 28.1406
Q2.6875 28.5156 2.6875 28.8125
Q3.76562 33.1562 4.76562 36.1719
Q5.76562 39.2031 7.89062 41.6875
Q10.0156 44.1875 13.1875 44.1875
Q16.9375 44.1875 19.8125 41.8125
Q22.7031 39.4531 22.7031 35.7969
Q25.6875 39.7031 29.6875 41.9375
Q33.6875 44.1875 38.1875 44.1875
Q42.9219 44.1875 46.3594 41.7656
Q49.8125 39.3594 49.8125 34.9062
Q52.875 39.2656 57 41.7188
Q61.1406 44.1875 66.0156 44.1875
Q71.1875 44.1875 74.3281 41.375
Q77.4844 38.5781 77.4844 33.4062
Q77.4844 29.2969 75.6562 23.4844
Q73.8281 17.6719 71.0938 10.5
Q69.6719 7.03125 69.6719 4.5
Q69.6719 1.51562 72.0156 1.51562
Q75.9219 1.51562 78.5156 5.70312
Q81.1094 9.90625 82.1719 14.7031
Q82.4688 15.2812 83.0156 15.2812
L84.1875 15.2812
Q84.5781 15.2812 84.8438 15.0156
Q85.1094 14.75 85.1094 14.4062
Q85.1094 14.3125 85.0156 14.1094
Q83.6406 8.45312 80.25 3.65625
Q76.8594 -1.125 71.7812 -1.125
Q68.2656 -1.125 65.7656 1.29688
Q63.2812 3.71875 63.2812 7.17188
Q63.2812 8.9375 64.1094 11.0781
Q66.9375 18.6094 68.8125 24.5156
Q70.7031 30.4219 70.7031 34.9062
Q70.7031 37.7031 69.5781 39.6562
Q68.4531 41.6094 65.8281 41.6094
Q60.3594 41.6094 56.3438 38.25
Q52.3438 34.9062 49.4219 29.3906
Q49.2188 28.4219 49.125 27.875
L42.6719 2.20312
Q42.3281 0.828125 41.125 -0.140625
Q39.9375 -1.125 38.4844 -1.125
Q37.3125 -1.125 36.4062 -0.34375
Q35.5 0.4375 35.5 1.70312
Q35.5 2.29688 35.5938 2.59375
L42 28.0781
Q43.0156 32.1719 43.0156 34.9062
Q43.0156 37.7031 41.8594 39.6562
Q40.7188 41.6094 37.9844 41.6094
Q34.3281 41.6094 31.25 39.9844
Q28.1719 38.375 25.875 35.7188
Q23.5781 33.0625 21.6875 29.3906
L14.8906 2.20312
Q14.5469 0.828125 13.3438 -0.140625
Q12.1562 -1.125 10.6875 -1.125
Q9.46875 -1.125 8.59375 -0.34375
Q7.71875 0.4375 7.71875 1.70312" id="Cmmi10-6d"/>
      <path d="
M8.40625 5.51562
Q8.40625 7.76562 10.0625 9.375
Q11.7188 10.9844 13.9219 10.9844
Q15.2812 10.9844 16.5938 10.25
Q17.9219 9.51562 18.6562 8.20312
Q19.3906 6.89062 19.3906 5.51562
Q19.3906 3.32812 17.7656 1.65625
Q16.1562 0 13.9219 0
Q11.7188 0 10.0625 1.65625
Q8.40625 3.32812 8.40625 5.51562" id="Cmmi10-3a"/>
     </defs>
     <g transform="translate(93.56 53.02)scale(0.08 -0.08)">
      <use transform="translate(0.0 0.6875)" xlink:href="#Cmmi10-b7"/>
      <use transform="translate(75.17578125 0.6875)" xlink:href="#Cmr10-3d"/>
      <use transform="translate(159.234375 0.6875)" xlink:href="#Cmr10-38"/>
      <use transform="translate(209.234375 0.6875)" xlink:href="#Cmmi10-3b"/>
      <use transform="translate(238.90234375 0.6875)" xlink:href="#Cmr10-31"/>
      <use transform="translate(288.90234375 0.6875)" xlink:href="#Cmr10-30"/>
      <use transform="translate(338.90234375 0.6875)" xlink:href="#Cmmi10-4a"/>
      <use transform="translate(394.322265625 -24.821875)scale(0.7)" xlink:href="#Cmmi10-45"/>
      <use transform="translate(445.967773438 -24.821875)scale(0.7)" xlink:href="#Cmmi10-45"/>
      <use transform="translate(497.61328125 0.6875)" xlink:href="#Cmmi10-3b"/>
      <use transform="translate(527.28125 0.6875)" xlink:href="#Cmr10-32"/>
      <use transform="translate(577.28125 0.6875)" xlink:href="#Cmmi10-3a"/>
      <use transform="translate(605.82421875 0.6875)" xlink:href="#Cmr10-34"/>
      <use transform="translate(655.82421875 0.6875)" xlink:href="#Cmmi10-6d"/>
      <use transform="translate(743.6171875 -24.821875)scale(0.7)" xlink:href="#Cmmi10-49"/>
     </g>
    </g>
   </g>
  </g>
 </g>
 <defs>
  <clipPath id="pdb4acf8bd1">
   <rect height="93.6" width="117.0" x="46.8" y="15.84"/>
  </clipPath>
 </defs>
</svg>
