<?xml version="1.0" encoding="UTF-8" standalone="no"?>
<!-- Created with matplotlib (http://matplotlib.org/) -->

<svg
   xmlns:dc="http://purl.org/dc/elements/1.1/"
   xmlns:cc="http://creativecommons.org/ns#"
   xmlns:rdf="http://www.w3.org/1999/02/22-rdf-syntax-ns#"
   xmlns:svg="http://www.w3.org/2000/svg"
   xmlns="http://www.w3.org/2000/svg"
   xmlns:xlink="http://www.w3.org/1999/xlink"
   xmlns:sodipodi="http://sodipodi.sourceforge.net/DTD/sodipodi-0.dtd"
   xmlns:inkscape="http://www.inkscape.org/namespaces/inkscape"
   height="288pt"
   version="1.1"
   viewBox="0 0 360 288"
   width="360pt"
   id="svg10410"
   inkscape:version="0.48.4 r9939"
   sodipodi:docname="OSIhist_vs_p_and_gamma_E.svg">
  <metadata
     id="metadata10725">
    <rdf:RDF>
      <cc:Work
         rdf:about="">
        <dc:format>image/svg+xml</dc:format>
        <dc:type
           rdf:resource="http://purl.org/dc/dcmitype/StillImage" />
      </cc:Work>
    </rdf:RDF>
  </metadata>
  <sodipodi:namedview
     pagecolor="#ffffff"
     bordercolor="#666666"
     borderopacity="1"
     objecttolerance="10"
     gridtolerance="10"
     guidetolerance="10"
     inkscape:pageopacity="0"
     inkscape:pageshadow="2"
     inkscape:window-width="640"
     inkscape:window-height="480"
     id="namedview10723"
     showgrid="false" />
  <defs
     id="defs10412">
    <style
       type="text/css"
       id="style10414">
*{stroke-linecap:butt;stroke-linejoin:round;stroke-miterlimit:100000;}
  </style>
    <clipPath
       clipPathUnits="userSpaceOnUse"
       id="clipPath10729">
      <rect
         style="fill:#34342a;fill-opacity:0;stroke:#000000;stroke-width:1.60000002;stroke-linecap:butt;stroke-linejoin:round;stroke-miterlimit:4;stroke-opacity:1;stroke-dasharray:none;stroke-dashoffset:0"
         id="rect10731"
         width="117.93103"
         height="77.275864"
         x="234.93103"
         y="2.7931032" />
    </clipPath>
  </defs>
  <g
     id="figure_1"
     clip-path="url(#clipPath10729)">
    <g
       id="patch_1">
      <path
         d="M 0 288  L 360 288  L 360 0  L 0 0  z "
         style="fill:#ffffff;"
         id="path10418" />
    </g>
    <g
       id="axes_1">
      <g
         id="patch_2">
        <path
           d="M 36 259.2  L 360 259.2  L 360 0  L 36 0  z "
           style="fill:#ffffff;"
           id="path10422" />
      </g>
      <g
         id="patch_3">
        <path
           clip-path="url(#pc9df0238e3)"
           d="M 37.146436 259.2  L 37.146436 221.437492  L 45.708528 221.437492  L 45.708528 163.077252  L 54.27062 163.077252  L 54.27062 113.789822  L 62.832713 113.789822  L 62.832713 72.594358  L 71.394805 72.594358  L 71.394805 55.429582  L 79.956897 55.429582  L 79.956897 35.567483  L 88.518989 35.567483  L 88.518989 36.548328  L 97.081082 36.548328  L 97.081082 43.90466  L 105.643174 43.90466  L 105.643174 50.52536  L 114.205266 50.52536  L 114.205266 77.989002  L 122.767358 77.989002  L 122.767358 109.376022  L 131.329451 109.376022  L 131.329451 113.054189  L 139.891543 113.054189  L 139.891543 140.027409  L 148.453635 140.027409  L 148.453635 173.376117  L 157.015727 173.376117  L 157.015727 192.747794  L 165.57782 192.747794  L 165.57782 209.176937  L 174.139912 209.176937  L 174.139912 224.625236  L 182.702004 224.625236  L 182.702004 229.284247  L 191.264096 229.284247  L 191.264096 241.054379  L 199.826189 241.054379  L 199.826189 246.449023  L 208.388281 246.449023  L 208.388281 252.088878  L 216.950373 252.088878  L 216.950373 255.031411  L 225.512465 255.031411  L 225.512465 255.521834  L 234.074558 255.521834  L 234.074558 258.464367  L 242.63665 258.464367  L 242.63665 257.973945  L 251.198742 257.973945  L 251.198742 258.709578  L 259.760834 258.709578  L 259.760834 258.464367  L 268.322927 258.464367  L 268.322927 259.2  "
           style="fill:none;stroke:#1b9e77;stroke-linejoin:miter;"
           id="path10425" />
      </g>
      <g
         id="patch_4">
        <path
           clip-path="url(#pc9df0238e3)"
           d="M 36.404982 259.2  L 36.404982 228.4304  L 45.138881 228.4304  L 45.138881 160.641124  L 53.872779 160.641124  L 53.872779 124.582998  L 62.606677 124.582998  L 62.606677 70.976585  L 71.340575 70.976585  L 71.340575 45.49551  L 80.074474 45.49551  L 80.074474 30.110709  L 88.808372 30.110709  L 88.808372 29.870322  L 97.54227 29.870322  L 97.54227 40.206984  L 106.276169 40.206984  L 106.276169 64.966897  L 115.010067 64.966897  L 115.010067 73.861235  L 123.743965 73.861235  L 123.743965 106.313548  L 132.477863 106.313548  L 132.477863 121.698348  L 141.211762 121.698348  L 141.211762 150.544849  L 149.94566 150.544849  L 149.94566 187.324137  L 158.679558 187.324137  L 158.679558 191.651112  L 167.413456 191.651112  L 167.413456 211.843662  L 176.147355 211.843662  L 176.147355 226.747687  L 184.881253 226.747687  L 184.881253 235.642025  L 193.615151 235.642025  L 193.615151 243.574812  L 202.34905 243.574812  L 202.34905 251.026825  L 211.082948 251.026825  L 211.082948 254.151862  L 219.816846 254.151862  L 219.816846 255.113412  L 228.550744 255.113412  L 228.550744 257.2769  L 237.284643 257.2769  L 237.284643 256.796125  L 246.018541 256.796125  L 246.018541 258.959612  L 254.752439 258.959612  L 254.752439 258.478837  L 263.486337 258.478837  L 263.486337 258.23845  L 272.220236 258.23845  L 272.220236 259.2  "
           style="fill:none;stroke:#b16649;stroke-linejoin:miter;"
           id="path10428" />
      </g>
      <g
         id="patch_5">
        <path
           clip-path="url(#pc9df0238e3)"
           d="M 36.374777 259.2  L 36.374777 210.904969  L 47.93854 210.904969  L 47.93854 140.278026  L 59.502304 140.278026  L 59.502304 80.544698  L 71.066068 80.544698  L 71.066068 52.402857  L 82.629831 52.402857  L 82.629831 39.330518  L 94.193595 39.330518  L 94.193595 48.226971  L 105.757358 48.226971  L 105.757358 64.930515  L 117.321122 64.930515  L 117.321122 99.063845  L 128.884886 99.063845  L 128.884886 131.200012  L 140.448649 131.200012  L 140.448649 153.531925  L 152.012413 153.531925  L 152.012413 176.590079  L 163.576177 176.590079  L 163.576177 210.904969  L 175.13994 210.904969  L 175.13994 219.438302  L 186.703704 219.438302  L 186.703704 233.418442  L 198.267467 233.418442  L 198.267467 241.951775  L 209.831231 241.951775  L 209.831231 247.580143  L 221.394995 247.580143  L 221.394995 251.756029  L 232.958758 251.756029  L 232.958758 253.753192  L 244.522522 253.753192  L 244.522522 256.658156  L 256.086286 256.658156  L 256.086286 257.747518  L 267.650049 257.747518  L 267.650049 258.655319  L 279.213813 258.655319  L 279.213813 258.836879  L 290.777576 258.836879  L 290.777576 258.655319  L 302.34134 258.655319  L 302.34134 259.01844  L 313.905104 259.01844  L 313.905104 259.2  L 325.468867 259.2  L 325.468867 259.2  L 337.032631 259.2  L 337.032631 259.01844  L 348.596395 259.01844  L 348.596395 259.2  "
           style="fill:none;stroke:#d03792;stroke-linejoin:miter;"
           id="path10431" />
      </g>
      <g
         id="patch_6">
        <path
           clip-path="url(#pc9df0238e3)"
           d="M 46.567035 259.2  L 46.567035 258.787857  L 56.755347 258.787857  L 56.755347 257.7575  L 66.94366 257.7575  L 66.94366 253.842143  L 77.131973 253.842143  L 77.131973 253.223929  L 87.320286 253.223929  L 87.320286 245.599287  L 97.508598 245.599287  L 97.508598 240.24143  L 107.696911 240.24143  L 107.696911 231.998573  L 117.885224 231.998573  L 117.885224 217.985717  L 128.073536 217.985717  L 128.073536 206.239647  L 138.261849 206.239647  L 138.261849 186.25072  L 148.450162 186.25072  L 148.450162 162.552507  L 158.638475 162.552507  L 158.638475 135.763224  L 168.826787 135.763224  L 168.826787 103.616083  L 179.0151 103.616083  L 179.0151 77.857156  L 189.203413 77.857156  L 189.203413 60.753229  L 199.391725 60.753229  L 199.391725 50.861801  L 209.580038 50.861801  L 209.580038 63.020015  L 219.768351 63.020015  L 219.768351 77.238942  L 229.956664 77.238942  L 229.956664 89.603227  L 240.144976 89.603227  L 240.144976 137.411795  L 250.333289 137.411795  L 250.333289 172.237864  L 260.521602 172.237864  L 260.521602 204.591076  L 270.709914 204.591076  L 270.709914 235.295716  L 280.898227 235.295716  L 280.898227 245.805358  L 291.08654 245.805358  L 291.08654 253.223929  L 301.274853 253.223929  L 301.274853 257.139286  L 311.463165 257.139286  L 311.463165 258.787857  L 321.651478 258.787857  L 321.651478 259.2  "
           style="fill:none;stroke:#80a718;stroke-linejoin:miter;"
           id="path10434" />
      </g>
      <g
         id="LineCollection_1">
        <path
           clip-path="url(#pc9df0238e3)"
           d="M 105.583186 259.2  L 105.583186 0  "
           style="fill:none;stroke:#1b9e77;"
           id="path10437" />
      </g>
      <g
         id="LineCollection_2">
        <path
           clip-path="url(#pc9df0238e3)"
           d="M 105.051433 259.2  L 105.051433 0  "
           style="fill:none;stroke:#b16649;"
           id="path10440" />
      </g>
      <g
         id="LineCollection_3">
        <path
           clip-path="url(#pc9df0238e3)"
           d="M 107.148266 259.2  L 107.148266 0  "
           style="fill:none;stroke:#d03792;"
           id="path10443" />
      </g>
      <g
         id="LineCollection_4">
        <path
           clip-path="url(#pc9df0238e3)"
           d="M 198.433913 259.2  L 198.433913 0  "
           style="fill:none;stroke:#80a718;"
           id="path10446" />
      </g>
      <g
         id="patch_7">
        <path
           d="M 36 259.2  L 360 259.2  "
           style="fill:none;stroke:#000000;stroke-linecap:square;stroke-linejoin:miter;stroke-width:0.5;"
           id="path10449" />
      </g>
      <g
         id="patch_8">
        <path
           d="M 36 259.2  L 36 0  "
           style="fill:none;stroke:#000000;stroke-linecap:square;stroke-linejoin:miter;stroke-width:0.5;"
           id="path10452" />
      </g>
      <g
         id="matplotlib.axis_1">
        <g
           id="xtick_1">
          <g
             id="line2d_1">
            <defs
               id="defs10457">
              <path
                 d="M 0 0  L 0 4  "
                 id="mfe204dd2cd"
                 style="stroke:#000000;stroke-width:0.5;" />
            </defs>
            <g
               id="g10460">
              <use
                 style="stroke:#000000;stroke-width:0.5;"
                 x="36.0"
                 xlink:href="#mfe204dd2cd"
                 y="259.2"
                 id="use10462" />
            </g>
          </g>
          <g
             id="text_1">
            <!-- 0.0 -->
            <defs
               id="defs10465">
              <path
                 d="M 31.78125 66.40625  Q 24.171875 66.40625 20.328125 58.90625  Q 16.5 51.421875 16.5 36.375  Q 16.5 21.390625 20.328125 13.890625  Q 24.171875 6.390625 31.78125 6.390625  Q 39.453125 6.390625 43.28125 13.890625  Q 47.125 21.390625 47.125 36.375  Q 47.125 51.421875 43.28125 58.90625  Q 39.453125 66.40625 31.78125 66.40625  M 31.78125 74.21875  Q 44.046875 74.21875 50.515625 64.515625  Q 56.984375 54.828125 56.984375 36.375  Q 56.984375 17.96875 50.515625 8.265625  Q 44.046875 -1.421875 31.78125 -1.421875  Q 19.53125 -1.421875 13.0625 8.265625  Q 6.59375 17.96875 6.59375 36.375  Q 6.59375 54.828125 13.0625 64.515625  Q 19.53125 74.21875 31.78125 74.21875  "
                 id="BitstreamVeraSans-Roman-30" />
              <path
                 d="M 10.6875 12.40625  L 21 12.40625  L 21 0  L 10.6875 0  z "
                 id="BitstreamVeraSans-Roman-2e" />
            </defs>
            <g
               transform="translate(31.2290625 271.7590625)scale(0.06 -0.06)"
               id="g10469">
              <use
                 xlink:href="#BitstreamVeraSans-Roman-30"
                 id="use10471" />
              <use
                 x="63.623046875"
                 xlink:href="#BitstreamVeraSans-Roman-2e"
                 id="use10473" />
              <use
                 x="95.41015625"
                 xlink:href="#BitstreamVeraSans-Roman-30"
                 id="use10475" />
            </g>
          </g>
        </g>
        <g
           id="xtick_2">
          <g
             id="line2d_2">
            <g
               id="g10479">
              <use
                 style="stroke:#000000;stroke-width:0.5;"
                 x="198.0"
                 xlink:href="#mfe204dd2cd"
                 y="259.2"
                 id="use10481" />
            </g>
          </g>
          <g
             id="text_2">
            <!-- 0.5 -->
            <defs
               id="defs10484">
              <path
                 d="M 10.796875 72.90625  L 49.515625 72.90625  L 49.515625 64.59375  L 19.828125 64.59375  L 19.828125 46.734375  Q 21.96875 47.46875 24.109375 47.828125  Q 26.265625 48.1875 28.421875 48.1875  Q 40.625 48.1875 47.75 41.5  Q 54.890625 34.8125 54.890625 23.390625  Q 54.890625 11.625 47.5625 5.09375  Q 40.234375 -1.421875 26.90625 -1.421875  Q 22.3125 -1.421875 17.546875 -0.640625  Q 12.796875 0.140625 7.71875 1.703125  L 7.71875 11.625  Q 12.109375 9.234375 16.796875 8.0625  Q 21.484375 6.890625 26.703125 6.890625  Q 35.15625 6.890625 40.078125 11.328125  Q 45.015625 15.765625 45.015625 23.390625  Q 45.015625 31 40.078125 35.4375  Q 35.15625 39.890625 26.703125 39.890625  Q 22.75 39.890625 18.8125 39.015625  Q 14.890625 38.140625 10.796875 36.28125  z "
                 id="BitstreamVeraSans-Roman-35" />
            </defs>
            <g
               transform="translate(193.2290625 271.7590625)scale(0.06 -0.06)"
               id="g10487">
              <use
                 xlink:href="#BitstreamVeraSans-Roman-30"
                 id="use10489" />
              <use
                 x="63.623046875"
                 xlink:href="#BitstreamVeraSans-Roman-2e"
                 id="use10491" />
              <use
                 x="95.41015625"
                 xlink:href="#BitstreamVeraSans-Roman-35"
                 id="use10493" />
            </g>
          </g>
        </g>
        <g
           id="xtick_3">
          <g
             id="line2d_3">
            <g
               id="g10497">
              <use
                 style="stroke:#000000;stroke-width:0.5;"
                 x="360.0"
                 xlink:href="#mfe204dd2cd"
                 y="259.2"
                 id="use10499" />
            </g>
          </g>
          <g
             id="text_3">
            <!-- 1.0 -->
            <defs
               id="defs10502">
              <path
                 d="M 12.40625 8.296875  L 28.515625 8.296875  L 28.515625 63.921875  L 10.984375 60.40625  L 10.984375 69.390625  L 28.421875 72.90625  L 38.28125 72.90625  L 38.28125 8.296875  L 54.390625 8.296875  L 54.390625 0  L 12.40625 0  z "
                 id="BitstreamVeraSans-Roman-31" />
            </defs>
            <g
               transform="translate(355.2290625 271.7590625)scale(0.06 -0.06)"
               id="g10505">
              <use
                 xlink:href="#BitstreamVeraSans-Roman-31"
                 id="use10507" />
              <use
                 x="63.623046875"
                 xlink:href="#BitstreamVeraSans-Roman-2e"
                 id="use10509" />
              <use
                 x="95.41015625"
                 xlink:href="#BitstreamVeraSans-Roman-30"
                 id="use10511" />
            </g>
          </g>
        </g>
        <g
           id="text_4">
          <!-- OSI -->
          <defs
             id="defs10514">
            <path
               d="M 39.40625 66.21875  Q 28.65625 66.21875 22.328125 58.203125  Q 16.015625 50.203125 16.015625 36.375  Q 16.015625 22.609375 22.328125 14.59375  Q 28.65625 6.59375 39.40625 6.59375  Q 50.140625 6.59375 56.421875 14.59375  Q 62.703125 22.609375 62.703125 36.375  Q 62.703125 50.203125 56.421875 58.203125  Q 50.140625 66.21875 39.40625 66.21875  M 39.40625 74.21875  Q 54.734375 74.21875 63.90625 63.9375  Q 73.09375 53.65625 73.09375 36.375  Q 73.09375 19.140625 63.90625 8.859375  Q 54.734375 -1.421875 39.40625 -1.421875  Q 24.03125 -1.421875 14.8125 8.828125  Q 5.609375 19.09375 5.609375 36.375  Q 5.609375 53.65625 14.8125 63.9375  Q 24.03125 74.21875 39.40625 74.21875  "
               id="BitstreamVeraSans-Roman-4f" />
            <path
               d="M 53.515625 70.515625  L 53.515625 60.890625  Q 47.90625 63.578125 42.921875 64.890625  Q 37.9375 66.21875 33.296875 66.21875  Q 25.25 66.21875 20.875 63.09375  Q 16.5 59.96875 16.5 54.203125  Q 16.5 49.359375 19.40625 46.890625  Q 22.3125 44.4375 30.421875 42.921875  L 36.375 41.703125  Q 47.40625 39.59375 52.65625 34.296875  Q 57.90625 29 57.90625 20.125  Q 57.90625 9.515625 50.796875 4.046875  Q 43.703125 -1.421875 29.984375 -1.421875  Q 24.8125 -1.421875 18.96875 -0.25  Q 13.140625 0.921875 6.890625 3.21875  L 6.890625 13.375  Q 12.890625 10.015625 18.65625 8.296875  Q 24.421875 6.59375 29.984375 6.59375  Q 38.421875 6.59375 43.015625 9.90625  Q 47.609375 13.234375 47.609375 19.390625  Q 47.609375 24.75 44.3125 27.78125  Q 41.015625 30.8125 33.5 32.328125  L 27.484375 33.5  Q 16.453125 35.6875 11.515625 40.375  Q 6.59375 45.0625 6.59375 53.421875  Q 6.59375 63.09375 13.40625 68.65625  Q 20.21875 74.21875 32.171875 74.21875  Q 37.3125 74.21875 42.625 73.28125  Q 47.953125 72.359375 53.515625 70.515625  "
               id="BitstreamVeraSans-Roman-53" />
            <path
               d="M 9.8125 72.90625  L 19.671875 72.90625  L 19.671875 0  L 9.8125 0  z "
               id="BitstreamVeraSans-Roman-49" />
          </defs>
          <g
             transform="translate(191.131875 284.085625)scale(0.08 -0.08)"
             id="g10519">
            <use
               xlink:href="#BitstreamVeraSans-Roman-4f"
               id="use10521" />
            <use
               x="78.7109375"
               xlink:href="#BitstreamVeraSans-Roman-53"
               id="use10523" />
            <use
               x="142.1875"
               xlink:href="#BitstreamVeraSans-Roman-49"
               id="use10525" />
          </g>
        </g>
      </g>
      <g
         id="matplotlib.axis_2">
        <g
           id="ytick_1">
          <g
             id="line2d_4">
            <defs
               id="defs10530">
              <path
                 d="M 0 0  L -4 0  "
                 id="m5e542c10e9"
                 style="stroke:#000000;stroke-width:0.5;" />
            </defs>
            <g
               id="g10533">
              <use
                 style="stroke:#000000;stroke-width:0.5;"
                 x="36.0"
                 xlink:href="#m5e542c10e9"
                 y="259.2"
                 id="use10535" />
            </g>
          </g>
          <g
             id="text_5">
            <!-- 0.0 -->
            <g
               transform="translate(18.458125 260.855625)scale(0.06 -0.06)"
               id="g10538">
              <use
                 xlink:href="#BitstreamVeraSans-Roman-30"
                 id="use10540" />
              <use
                 x="63.623046875"
                 xlink:href="#BitstreamVeraSans-Roman-2e"
                 id="use10542" />
              <use
                 x="95.41015625"
                 xlink:href="#BitstreamVeraSans-Roman-30"
                 id="use10544" />
            </g>
          </g>
        </g>
        <g
           id="ytick_2">
          <g
             id="line2d_5">
            <g
               id="g10548">
              <use
                 style="stroke:#000000;stroke-width:0.5;"
                 x="36.0"
                 xlink:href="#m5e542c10e9"
                 y="129.6"
                 id="use10550" />
            </g>
          </g>
          <g
             id="text_6">
            <!-- 2.0 -->
            <defs
               id="defs10553">
              <path
                 d="M 19.1875 8.296875  L 53.609375 8.296875  L 53.609375 0  L 7.328125 0  L 7.328125 8.296875  Q 12.9375 14.109375 22.625 23.890625  Q 32.328125 33.6875 34.8125 36.53125  Q 39.546875 41.84375 41.421875 45.53125  Q 43.3125 49.21875 43.3125 52.78125  Q 43.3125 58.59375 39.234375 62.25  Q 35.15625 65.921875 28.609375 65.921875  Q 23.96875 65.921875 18.8125 64.3125  Q 13.671875 62.703125 7.8125 59.421875  L 7.8125 69.390625  Q 13.765625 71.78125 18.9375 73  Q 24.125 74.21875 28.421875 74.21875  Q 39.75 74.21875 46.484375 68.546875  Q 53.21875 62.890625 53.21875 53.421875  Q 53.21875 48.921875 51.53125 44.890625  Q 49.859375 40.875 45.40625 35.40625  Q 44.1875 33.984375 37.640625 27.21875  Q 31.109375 20.453125 19.1875 8.296875  "
                 id="BitstreamVeraSans-Roman-32" />
            </defs>
            <g
               transform="translate(18.458125 131.255625)scale(0.06 -0.06)"
               id="g10556">
              <use
                 xlink:href="#BitstreamVeraSans-Roman-32"
                 id="use10558" />
              <use
                 x="63.623046875"
                 xlink:href="#BitstreamVeraSans-Roman-2e"
                 id="use10560" />
              <use
                 x="95.41015625"
                 xlink:href="#BitstreamVeraSans-Roman-30"
                 id="use10562" />
            </g>
          </g>
        </g>
        <g
           id="ytick_3">
          <g
             id="line2d_6">
            <g
               id="g10566">
              <use
                 style="stroke:#000000;stroke-width:0.5;"
                 x="36.0"
                 xlink:href="#m5e542c10e9"
                 y="0.0"
                 id="use10568" />
            </g>
          </g>
          <g
             id="text_7">
            <!-- 4.0 -->
            <defs
               id="defs10571">
              <path
                 d="M 37.796875 64.3125  L 12.890625 25.390625  L 37.796875 25.390625  z M 35.203125 72.90625  L 47.609375 72.90625  L 47.609375 25.390625  L 58.015625 25.390625  L 58.015625 17.1875  L 47.609375 17.1875  L 47.609375 0  L 37.796875 0  L 37.796875 17.1875  L 4.890625 17.1875  L 4.890625 26.703125  z "
                 id="BitstreamVeraSans-Roman-34" />
            </defs>
            <g
               transform="translate(18.458125 1.655625)scale(0.06 -0.06)"
               id="g10574">
              <use
                 xlink:href="#BitstreamVeraSans-Roman-34"
                 id="use10576" />
              <use
                 x="63.623046875"
                 xlink:href="#BitstreamVeraSans-Roman-2e"
                 id="use10578" />
              <use
                 x="95.41015625"
                 xlink:href="#BitstreamVeraSans-Roman-30"
                 id="use10580" />
            </g>
          </g>
        </g>
        <g
           id="text_8">
          <!-- Density -->
          <defs
             id="defs10583">
            <path
               d="M 54.890625 33.015625  L 54.890625 0  L 45.90625 0  L 45.90625 32.71875  Q 45.90625 40.484375 42.875 44.328125  Q 39.84375 48.1875 33.796875 48.1875  Q 26.515625 48.1875 22.3125 43.546875  Q 18.109375 38.921875 18.109375 30.90625  L 18.109375 0  L 9.078125 0  L 9.078125 54.6875  L 18.109375 54.6875  L 18.109375 46.1875  Q 21.34375 51.125 25.703125 53.5625  Q 30.078125 56 35.796875 56  Q 45.21875 56 50.046875 50.171875  Q 54.890625 44.34375 54.890625 33.015625  "
               id="BitstreamVeraSans-Roman-6e" />
            <path
               d="M 19.671875 64.796875  L 19.671875 8.109375  L 31.59375 8.109375  Q 46.6875 8.109375 53.6875 14.9375  Q 60.6875 21.78125 60.6875 36.53125  Q 60.6875 51.171875 53.6875 57.984375  Q 46.6875 64.796875 31.59375 64.796875  z M 9.8125 72.90625  L 30.078125 72.90625  Q 51.265625 72.90625 61.171875 64.09375  Q 71.09375 55.28125 71.09375 36.53125  Q 71.09375 17.671875 61.125 8.828125  Q 51.171875 0 30.078125 0  L 9.8125 0  z "
               id="BitstreamVeraSans-Roman-44" />
            <path
               d="M 9.421875 54.6875  L 18.40625 54.6875  L 18.40625 0  L 9.421875 0  z M 9.421875 75.984375  L 18.40625 75.984375  L 18.40625 64.59375  L 9.421875 64.59375  z "
               id="BitstreamVeraSans-Roman-69" />
            <path
               d="M 32.171875 -5.078125  Q 28.375 -14.84375 24.75 -17.8125  Q 21.140625 -20.796875 15.09375 -20.796875  L 7.90625 -20.796875  L 7.90625 -13.28125  L 13.1875 -13.28125  Q 16.890625 -13.28125 18.9375 -11.515625  Q 21 -9.765625 23.484375 -3.21875  L 25.09375 0.875  L 2.984375 54.6875  L 12.5 54.6875  L 29.59375 11.921875  L 46.6875 54.6875  L 56.203125 54.6875  z "
               id="BitstreamVeraSans-Roman-79" />
            <path
               d="M 56.203125 29.59375  L 56.203125 25.203125  L 14.890625 25.203125  Q 15.484375 15.921875 20.484375 11.0625  Q 25.484375 6.203125 34.421875 6.203125  Q 39.59375 6.203125 44.453125 7.46875  Q 49.3125 8.734375 54.109375 11.28125  L 54.109375 2.78125  Q 49.265625 0.734375 44.1875 -0.34375  Q 39.109375 -1.421875 33.890625 -1.421875  Q 20.796875 -1.421875 13.15625 6.1875  Q 5.515625 13.8125 5.515625 26.8125  Q 5.515625 40.234375 12.765625 48.109375  Q 20.015625 56 32.328125 56  Q 43.359375 56 49.78125 48.890625  Q 56.203125 41.796875 56.203125 29.59375  M 47.21875 32.234375  Q 47.125 39.59375 43.09375 43.984375  Q 39.0625 48.390625 32.421875 48.390625  Q 24.90625 48.390625 20.390625 44.140625  Q 15.875 39.890625 15.1875 32.171875  z "
               id="BitstreamVeraSans-Roman-65" />
            <path
               d="M 18.3125 70.21875  L 18.3125 54.6875  L 36.8125 54.6875  L 36.8125 47.703125  L 18.3125 47.703125  L 18.3125 18.015625  Q 18.3125 11.328125 20.140625 9.421875  Q 21.96875 7.515625 27.59375 7.515625  L 36.8125 7.515625  L 36.8125 0  L 27.59375 0  Q 17.1875 0 13.234375 3.875  Q 9.28125 7.765625 9.28125 18.015625  L 9.28125 47.703125  L 2.6875 47.703125  L 2.6875 54.6875  L 9.28125 54.6875  L 9.28125 70.21875  z "
               id="BitstreamVeraSans-Roman-74" />
            <path
               d="M 44.28125 53.078125  L 44.28125 44.578125  Q 40.484375 46.53125 36.375 47.5  Q 32.28125 48.484375 27.875 48.484375  Q 21.1875 48.484375 17.84375 46.4375  Q 14.5 44.390625 14.5 40.28125  Q 14.5 37.15625 16.890625 35.375  Q 19.28125 33.59375 26.515625 31.984375  L 29.59375 31.296875  Q 39.15625 29.25 43.1875 25.515625  Q 47.21875 21.78125 47.21875 15.09375  Q 47.21875 7.46875 41.1875 3.015625  Q 35.15625 -1.421875 24.609375 -1.421875  Q 20.21875 -1.421875 15.453125 -0.5625  Q 10.6875 0.296875 5.421875 2  L 5.421875 11.28125  Q 10.40625 8.6875 15.234375 7.390625  Q 20.0625 6.109375 24.8125 6.109375  Q 31.15625 6.109375 34.5625 8.28125  Q 37.984375 10.453125 37.984375 14.40625  Q 37.984375 18.0625 35.515625 20.015625  Q 33.0625 21.96875 24.703125 23.78125  L 21.578125 24.515625  Q 13.234375 26.265625 9.515625 29.90625  Q 5.8125 33.546875 5.8125 39.890625  Q 5.8125 47.609375 11.28125 51.796875  Q 16.75 56 26.8125 56  Q 31.78125 56 36.171875 55.265625  Q 40.578125 54.546875 44.28125 53.078125  "
               id="BitstreamVeraSans-Roman-73" />
          </defs>
          <g
             transform="translate(11.794375 144.806875)rotate(-90.0)scale(0.08 -0.08)"
             id="g10592">
            <use
               xlink:href="#BitstreamVeraSans-Roman-44"
               id="use10594" />
            <use
               x="77.001953125"
               xlink:href="#BitstreamVeraSans-Roman-65"
               id="use10596" />
            <use
               x="138.525390625"
               xlink:href="#BitstreamVeraSans-Roman-6e"
               id="use10598" />
            <use
               x="201.904296875"
               xlink:href="#BitstreamVeraSans-Roman-73"
               id="use10600" />
            <use
               x="254.00390625"
               xlink:href="#BitstreamVeraSans-Roman-69"
               id="use10602" />
            <use
               x="281.787109375"
               xlink:href="#BitstreamVeraSans-Roman-74"
               id="use10604" />
            <use
               x="320.99609375"
               xlink:href="#BitstreamVeraSans-Roman-79"
               id="use10606" />
          </g>
        </g>
      </g>
      <g
         id="text_9">
        <!-- E -->
        <defs
           id="defs10609">
          <path
             d="M 9.8125 72.90625  L 55.90625 72.90625  L 55.90625 64.59375  L 19.671875 64.59375  L 19.671875 43.015625  L 54.390625 43.015625  L 54.390625 34.71875  L 19.671875 34.71875  L 19.671875 8.296875  L 56.78125 8.296875  L 56.78125 0  L 9.8125 0  z "
             id="BitstreamVeraSans-Roman-45" />
        </defs>
        <g
           transform="translate(194.840625 -5.0)scale(0.1 -0.1)"
           id="g10612">
          <use
             xlink:href="#BitstreamVeraSans-Roman-45"
             id="use10614" />
        </g>
      </g>
      <g
         id="legend_1">
        <g
           id="patch_9">
          <path
             d="M 246.6 19.918125  L 270.6 19.918125  L 270.6 11.518125  L 246.6 11.518125  L 246.6 19.918125  z "
             style="fill:none;stroke:#1b9e77;stroke-linejoin:miter;"
             id="path10618" />
        </g>
        <g
           id="text_10">
          <!-- $p = 0. \gamma = 0$ -->
          <defs
             id="defs10621">
            <path
               d="M 29.5 -19.578125  Q 29.5 -17.328125 30.5 -13.03125  Q 31.5 -8.734375 32.9375 -3.875  Q 34.375 0.984375 35.40625 4.109375  Q 35.796875 9.078125 35.796875 11.625  Q 35.796875 18.0625 34.515625 23.609375  Q 33.25 29.15625 29.734375 32.890625  Q 26.21875 36.625 19.921875 36.625  Q 16.609375 36.625 13.3125 35.203125  Q 10.015625 33.796875 7.640625 31.25  Q 5.28125 28.71875 4.390625 25.484375  Q 4.203125 24.90625 3.609375 24.90625  L 2.390625 24.90625  Q 1.609375 24.90625 1.609375 25.78125  L 1.609375 26.125  Q 2.734375 30.609375 5.59375 34.78125  Q 8.453125 38.96875 12.578125 41.578125  Q 16.703125 44.1875 21.296875 44.1875  Q 25.984375 44.1875 29.390625 41.015625  Q 32.8125 37.84375 34.859375 32.953125  Q 36.921875 28.078125 37.8125 23.09375  Q 38.71875 18.109375 38.71875 13.71875  Q 43.75 27.390625 50 39.59375  L 51.515625 42.828125  Q 51.8125 43.109375 52.203125 43.109375  L 53.421875 43.109375  Q 54.203125 43.109375 54.203125 42.1875  Q 54.203125 42 54 41.609375  L 52.484375 38.484375  Q 48.140625 29.828125 44.5 20.9375  Q 40.875 12.0625 38.28125 3.8125  Q 37.890625 0.4375 36.78125 -5.421875  Q 35.6875 -11.28125 34.125 -16.328125  Q 32.5625 -21.390625 31 -21.578125  Q 29.5 -21.578125 29.5 -19.578125  "
               id="Cmmi10-b0" />
            <path
               d="M -2.484375 -19.390625  Q -3.421875 -19.390625 -3.421875 -18.109375  Q -3.078125 -15.921875 -2.09375 -15.921875  Q 1.03125 -15.921875 2.265625 -15.359375  Q 3.515625 -14.796875 4.203125 -12.5  L 15.484375 32.515625  Q 16.21875 34.375 16.21875 37.3125  Q 16.21875 41.609375 13.28125 41.609375  Q 10.15625 41.609375 8.640625 37.859375  Q 7.125 34.125 5.71875 28.421875  Q 5.71875 27.78125 4.890625 27.78125  L 3.71875 27.78125  Q 3.46875 27.78125 3.171875 28.140625  Q 2.875 28.515625 2.875 28.8125  Q 3.953125 33.15625 4.953125 36.171875  Q 5.953125 39.203125 8.078125 41.6875  Q 10.203125 44.1875 13.375 44.1875  Q 16.796875 44.1875 19.375 42.25  Q 21.96875 40.328125 22.703125 37.015625  Q 25.4375 40.1875 28.75 42.1875  Q 32.078125 44.1875 35.59375 44.1875  Q 39.796875 44.1875 42.890625 41.9375  Q 46 39.703125 47.5625 36.0625  Q 49.125 32.421875 49.125 28.21875  Q 49.125 21.78125 45.828125 14.890625  Q 42.53125 8.015625 36.890625 3.4375  Q 31.25 -1.125 24.8125 -1.125  Q 21.875 -1.125 19.5 0.53125  Q 17.140625 2.203125 15.828125 4.890625  L 11.28125 -12.890625  Q 11.03125 -14.359375 10.984375 -14.59375  Q 10.984375 -15.921875 17.578125 -15.921875  Q 18.609375 -15.921875 18.609375 -17.1875  Q 18.265625 -18.5 18.046875 -18.9375  Q 17.828125 -19.390625 16.890625 -19.390625  z M 24.90625 1.515625  Q 28.375 1.515625 31.34375 4.375  Q 34.328125 7.234375 36.1875 10.796875  Q 37.546875 13.484375 38.734375 17.359375  Q 39.9375 21.234375 40.8125 25.625  Q 41.703125 30.03125 41.703125 32.625  Q 41.703125 34.90625 41.09375 36.90625  Q 40.484375 38.921875 39.09375 40.265625  Q 37.703125 41.609375 35.40625 41.609375  Q 31.734375 41.609375 28.484375 38.984375  Q 25.25 36.375 22.609375 32.515625  L 22.609375 32.171875  L 17.09375 10.109375  Q 17.78125 6.546875 19.734375 4.03125  Q 21.6875 1.515625 24.90625 1.515625  "
               id="Cmmi10-70" />
            <path
               d="M 25 -2.203125  Q 12.75 -2.203125 8.328125 7.875  Q 3.90625 17.96875 3.90625 31.890625  Q 3.90625 40.578125 5.484375 48.234375  Q 7.078125 55.90625 11.78125 61.25  Q 16.5 66.609375 25 66.609375  Q 31.59375 66.609375 35.78125 63.375  Q 39.984375 60.15625 42.1875 55.046875  Q 44.390625 49.953125 45.1875 44.109375  Q 46 38.28125 46 31.890625  Q 46 23.296875 44.40625 15.796875  Q 42.828125 8.296875 38.1875 3.046875  Q 33.546875 -2.203125 25 -2.203125  M 25 0.390625  Q 30.5625 0.390625 33.296875 6.09375  Q 36.03125 11.8125 36.671875 18.75  Q 37.3125 25.6875 37.3125 33.5  Q 37.3125 41.015625 36.671875 47.359375  Q 36.03125 53.71875 33.3125 58.859375  Q 30.609375 64.015625 25 64.015625  Q 19.34375 64.015625 16.609375 58.828125  Q 13.875 53.65625 13.234375 47.328125  Q 12.59375 41.015625 12.59375 33.5  Q 12.59375 27.9375 12.859375 23  Q 13.140625 18.0625 14.3125 12.8125  Q 15.484375 7.5625 18.09375 3.96875  Q 20.703125 0.390625 25 0.390625  "
               id="Cmr10-30" />
            <path
               d="M 8.40625 5.515625  Q 8.40625 7.765625 10.0625 9.375  Q 11.71875 10.984375 13.921875 10.984375  Q 15.28125 10.984375 16.59375 10.25  Q 17.921875 9.515625 18.65625 8.203125  Q 19.390625 6.890625 19.390625 5.515625  Q 19.390625 3.328125 17.765625 1.65625  Q 16.15625 0 13.921875 0  Q 11.71875 0 10.0625 1.65625  Q 8.40625 3.328125 8.40625 5.515625  "
               id="Cmmi10-3a" />
            <path
               d="M 7.515625 13.28125  Q 6.6875 13.28125 6.140625 13.90625  Q 5.609375 14.546875 5.609375 15.28125  Q 5.609375 16.109375 6.140625 16.6875  Q 6.6875 17.28125 7.515625 17.28125  L 70.3125 17.28125  Q 71.046875 17.28125 71.578125 16.6875  Q 72.125 16.109375 72.125 15.28125  Q 72.125 14.546875 71.578125 13.90625  Q 71.046875 13.28125 70.3125 13.28125  z M 7.515625 32.71875  Q 6.6875 32.71875 6.140625 33.296875  Q 5.609375 33.890625 5.609375 34.71875  Q 5.609375 35.453125 6.140625 36.078125  Q 6.6875 36.71875 7.515625 36.71875  L 70.3125 36.71875  Q 71.046875 36.71875 71.578125 36.078125  Q 72.125 35.453125 72.125 34.71875  Q 72.125 33.890625 71.578125 33.296875  Q 71.046875 32.71875 70.3125 32.71875  z "
               id="Cmr10-3d" />
          </defs>
          <g
             transform="translate(280.2 19.918125)scale(0.12 -0.12)"
             id="g10628">
            <use
               transform="translate(0.0 0.390625)"
               xlink:href="#Cmmi10-70"
               id="use10630" />
            <use
               transform="translate(67.8515625 0.390625)"
               xlink:href="#Cmr10-3d"
               id="use10632" />
            <use
               transform="translate(163.095703125 0.390625)"
               xlink:href="#Cmr10-30"
               id="use10634" />
            <use
               transform="translate(213.095703125 0.390625)"
               xlink:href="#Cmmi10-3a"
               id="use10636" />
            <use
               transform="translate(258.33984375 0.390625)"
               xlink:href="#Cmmi10-b0"
               id="use10638" />
            <use
               transform="translate(327.607421875 0.390625)"
               xlink:href="#Cmr10-3d"
               id="use10640" />
            <use
               transform="translate(422.8515625 0.390625)"
               xlink:href="#Cmr10-30"
               id="use10642" />
          </g>
        </g>
        <g
           id="patch_10">
          <path
             d="M 246.6 38.03625  L 270.6 38.03625  L 270.6 29.63625  L 246.6 29.63625  L 246.6 38.03625  z "
             style="fill:none;stroke:#b16649;stroke-linejoin:miter;"
             id="path10645" />
        </g>
        <g
           id="text_11">
          <!-- $p = 0. \gamma = 0.1$ -->
          <defs
             id="defs10648">
            <path
               d="M 9.28125 0  L 9.28125 3.515625  Q 21.78125 3.515625 21.78125 6.6875  L 21.78125 59.1875  Q 16.609375 56.6875 8.6875 56.6875  L 8.6875 60.203125  Q 20.953125 60.203125 27.203125 66.609375  L 28.609375 66.609375  Q 28.953125 66.609375 29.265625 66.328125  Q 29.59375 66.0625 29.59375 65.71875  L 29.59375 6.6875  Q 29.59375 3.515625 42.09375 3.515625  L 42.09375 0  z "
               id="Cmr10-31" />
          </defs>
          <g
             transform="translate(280.2 38.03625)scale(0.12 -0.12)"
             id="g10651">
            <use
               transform="translate(0.0 0.390625)"
               xlink:href="#Cmmi10-70"
               id="use10653" />
            <use
               transform="translate(67.8515625 0.390625)"
               xlink:href="#Cmr10-3d"
               id="use10655" />
            <use
               transform="translate(163.095703125 0.390625)"
               xlink:href="#Cmr10-30"
               id="use10657" />
            <use
               transform="translate(213.095703125 0.390625)"
               xlink:href="#Cmmi10-3a"
               id="use10659" />
            <use
               transform="translate(258.33984375 0.390625)"
               xlink:href="#Cmmi10-b0"
               id="use10661" />
            <use
               transform="translate(327.607421875 0.390625)"
               xlink:href="#Cmr10-3d"
               id="use10663" />
            <use
               transform="translate(422.8515625 0.390625)"
               xlink:href="#Cmr10-30"
               id="use10665" />
            <use
               transform="translate(472.8515625 0.390625)"
               xlink:href="#Cmmi10-3a"
               id="use10667" />
            <use
               transform="translate(518.095703125 0.390625)"
               xlink:href="#Cmr10-31"
               id="use10669" />
          </g>
        </g>
        <g
           id="patch_11">
          <path
             d="M 246.6 56.154375  L 270.6 56.154375  L 270.6 47.754375  L 246.6 47.754375  L 246.6 56.154375  z "
             style="fill:none;stroke:#d03792;stroke-linejoin:miter;"
             id="path10672" />
        </g>
        <g
           id="text_12">
          <!-- $p = 7. \gamma = 0$ -->
          <defs
             id="defs10675">
            <path
               d="M 17.390625 2.59375  Q 17.390625 8.15625 18.359375 13.46875  Q 19.34375 18.796875 21.21875 24  Q 23.09375 29.203125 25.75 34.203125  Q 28.421875 39.203125 31.59375 43.609375  L 40.71875 56.296875  L 29.296875 56.296875  Q 11.53125 56.296875 10.984375 55.8125  Q 9.671875 54.203125 8.5 46.578125  L 5.609375 46.578125  L 8.890625 67.578125  L 11.8125 67.578125  L 11.8125 67.28125  Q 11.8125 65.484375 17.921875 64.9375  Q 24.03125 64.40625 29.890625 64.40625  L 48.484375 64.40625  L 48.484375 61.8125  Q 48.484375 61.71875 48.453125 61.671875  Q 48.4375 61.625 48.390625 61.53125  L 34.625 42.1875  Q 29.546875 34.671875 28.265625 25.484375  Q 27 16.3125 27 2.59375  Q 27 0.640625 25.578125 -0.78125  Q 24.171875 -2.203125 22.21875 -2.203125  Q 20.21875 -2.203125 18.796875 -0.78125  Q 17.390625 0.640625 17.390625 2.59375  "
               id="Cmr10-37" />
          </defs>
          <g
             transform="translate(280.2 56.154375)scale(0.12 -0.12)"
             id="g10678">
            <use
               transform="translate(0.0 0.421875)"
               xlink:href="#Cmmi10-70"
               id="use10680" />
            <use
               transform="translate(67.8515625 0.421875)"
               xlink:href="#Cmr10-3d"
               id="use10682" />
            <use
               transform="translate(163.095703125 0.421875)"
               xlink:href="#Cmr10-37"
               id="use10684" />
            <use
               transform="translate(213.095703125 0.421875)"
               xlink:href="#Cmmi10-3a"
               id="use10686" />
            <use
               transform="translate(258.33984375 0.421875)"
               xlink:href="#Cmmi10-b0"
               id="use10688" />
            <use
               transform="translate(327.607421875 0.421875)"
               xlink:href="#Cmr10-3d"
               id="use10690" />
            <use
               transform="translate(422.8515625 0.421875)"
               xlink:href="#Cmr10-30"
               id="use10692" />
          </g>
        </g>
        <g
           id="patch_12">
          <path
             d="M 246.6 74.2725  L 270.6 74.2725  L 270.6 65.8725  L 246.6 65.8725  L 246.6 74.2725  z "
             style="fill:none;stroke:#80a718;stroke-linejoin:miter;"
             id="path10695" />
        </g>
        <g
           id="text_13">
          <!-- $p = 7. \gamma = 0.1$ -->
          <g
             transform="translate(280.2 74.2725)scale(0.12 -0.12)"
             id="g10698">
            <use
               transform="translate(0.0 0.421875)"
               xlink:href="#Cmmi10-70"
               id="use10700" />
            <use
               transform="translate(67.8515625 0.421875)"
               xlink:href="#Cmr10-3d"
               id="use10702" />
            <use
               transform="translate(163.095703125 0.421875)"
               xlink:href="#Cmr10-37"
               id="use10704" />
            <use
               transform="translate(213.095703125 0.421875)"
               xlink:href="#Cmmi10-3a"
               id="use10706" />
            <use
               transform="translate(258.33984375 0.421875)"
               xlink:href="#Cmmi10-b0"
               id="use10708" />
            <use
               transform="translate(327.607421875 0.421875)"
               xlink:href="#Cmr10-3d"
               id="use10710" />
            <use
               transform="translate(422.8515625 0.421875)"
               xlink:href="#Cmr10-30"
               id="use10712" />
            <use
               transform="translate(472.8515625 0.421875)"
               xlink:href="#Cmmi10-3a"
               id="use10714" />
            <use
               transform="translate(518.095703125 0.421875)"
               xlink:href="#Cmr10-31"
               id="use10716" />
          </g>
        </g>
      </g>
    </g>
  </g>
  <defs
     id="defs10718">
    <clipPath
       id="pc9df0238e3">
      <rect
         height="259.2"
         width="324.0"
         x="36.0"
         y="0.0"
         id="rect10721" />
    </clipPath>
  </defs>
</svg>
